<?xml version="1.0" encoding="UTF-8" standalone="no"?>
<!-- Created with Inkscape (http://www.inkscape.org/) -->

<svg
   xmlns:dc="http://purl.org/dc/elements/1.1/"
   xmlns:cc="http://creativecommons.org/ns#"
   xmlns:rdf="http://www.w3.org/1999/02/22-rdf-syntax-ns#"
   xmlns:svg="http://www.w3.org/2000/svg"
   xmlns="http://www.w3.org/2000/svg"
   xmlns:sodipodi="http://sodipodi.sourceforge.net/DTD/sodipodi-0.dtd"
   xmlns:inkscape="http://www.inkscape.org/namespaces/inkscape"
   width="1920px"
   height="1080px"
   viewBox="0 0 1920 1080"
   version="1.1"
   id="SVGRoot"
   inkscape:version="0.92.2pre0 (973e216, 2017-07-25)"
   sodipodi:docname="SGBD SQLServer.svg">
  <sodipodi:namedview
     id="base"
     pagecolor="#ffffff"
     bordercolor="#666666"
     borderopacity="1.0"
     inkscape:pageopacity="0.0"
     inkscape:pageshadow="2"
     inkscape:zoom="0.475"
     inkscape:cx="717.4269"
     inkscape:cy="530.13484"
     inkscape:document-units="px"
     inkscape:current-layer="layer1"
     showgrid="false"
     inkscape:window-width="1366"
     inkscape:window-height="704"
     inkscape:window-x="0"
     inkscape:window-y="0"
     inkscape:window-maximized="1"
     showguides="true"
     inkscape:guide-bbox="true">
    <sodipodi:guide
       position="971.42857,1080"
       orientation="0,1"
       id="guide1411"
       inkscape:locked="false" />
    <sodipodi:guide
       position="0,666.60384"
       orientation="1,0"
       id="guide1413"
       inkscape:locked="false" />
    <sodipodi:guide
       position="1920.0904,659.81907"
       orientation="1,0"
       id="guide1415"
       inkscape:locked="false" />
    <sodipodi:guide
       position="1855.6351,0"
       orientation="0,1"
       id="guide1417"
       inkscape:locked="false" />
    <sodipodi:guide
       position="1764.2105,246.31579"
       orientation="0,1"
       id="guide1542"
       inkscape:locked="false" />
  </sodipodi:namedview>
  <defs
     id="defs831" />
  <metadata
     id="metadata834">
    <rdf:RDF>
      <cc:Work
         rdf:about="">
        <dc:format>image/svg+xml</dc:format>
        <dc:type
           rdf:resource="http://purl.org/dc/dcmitype/StillImage" />
        <dc:title />
      </cc:Work>
    </rdf:RDF>
  </metadata>
  <g
     id="layer1"
     inkscape:groupmode="layer"
     inkscape:label="Camada 1">
    <rect
       style="fill:#e14938;fill-opacity:1;stroke:none;stroke-opacity:1"
       id="rect1419"
       width="1920.0905"
       height="783.1579"
       x="0"
       y="-1.1641532e-10"
       inkscape:export-xdpi="96"
       inkscape:export-ydpi="96"
       inkscape:export-filename="/home/cryptocrawll/Pictures/SGBD - Banco de dados/Photos/sgbd.png" />
    <g
       transform="matrix(0.22549889,0,0,0.22549889,735.57944,125.13306)"
       id="g23"
       style="fill:#ffffff"
       inkscape:export-xdpi="96"
       inkscape:export-ydpi="96"
       inkscape:export-filename="/home/cryptocrawll/Pictures/SGBD - Banco de dados/Photos/sgbd.png">
      <linearGradient
         id="a"
         gradientUnits="userSpaceOnUse"
         x1="-2901.9519"
         y1="923.573"
         x2="-2061.249"
         y2="1420.3311"
         gradientTransform="matrix(0.1234,0,0,-0.1234,1158.33,1550.273)">
        <stop
           offset="0"
           stop-color="#909ca9"
           id="stop2" />
        <stop
           offset="1"
           stop-color="#ededee"
           id="stop4" />
      </linearGradient>
      <path
         inkscape:connector-curvature="0"
         d="m 1410.773,814.195 -286.9,93.683 -249.599,110.161 -69.829,18.435 c -17.784,16.916 -36.431,34.049 -56.599,51.397 -22.119,19.082 -42.72,36.433 -58.553,49.008 -17.564,13.88 -43.587,39.902 -56.814,56.38 -19.735,24.721 -35.348,50.96 -42.071,71.13 -11.928,36.433 -6.07,73.297 16.916,107.346 29.492,43.369 88.261,87.606 156.785,117.749 34.916,15.4 93.683,35.132 137.92,46.19 73.512,18.651 215.771,38.819 294.054,41.857 15.828,0.65 37.082,0.65 37.947,0 1.737,-1.088 13.881,-24.289 27.979,-53.129 48.142,-98.238 82.838,-190.402 101.703,-269.119 11.276,-47.706 20.166,-111.246 26.019,-186.492 1.521,-21.036 2.169,-91.514 0.868,-115.37 -1.953,-39.033 -5.423,-70.692 -10.84,-101.703 -0.868,-4.555 -1.088,-8.676 -0.652,-8.892 0.865,-0.65 3.467,-1.517 38.815,-11.712 l -7.153,-16.912 v -0.005 0 z m -65.49,38.386 c 2.602,0 9.539,66.573 11.273,108.646 0.436,8.89 0.216,14.745 -0.216,14.745 -1.733,0 -36.649,-20.599 -61.583,-36.212 -21.687,-13.663 -62.888,-40.988 -69.393,-46.192 -2.173,-1.517 -1.957,-1.733 15.828,-7.807 30.14,-10.194 101.706,-33.18 104.091,-33.18 z m -146.161,48.143 c 1.953,0 6.937,2.816 18.865,10.191 44.671,27.974 105.393,61.805 131.415,73.083 8.022,3.469 8.887,2.166 -9.542,14.746 -39.468,26.889 -88.697,53.344 -148.983,80.018 -10.624,4.771 -19.514,8.456 -19.73,8.456 -0.432,0 0.865,-5.418 2.598,-11.925 14.53,-54.001 22.772,-108.647 23.208,-152.452 0.216,-21.687 0.216,-21.687 2.169,-22.334 -0.436,0.217 -0.22,0.217 0,0.217 z m -30.142,11.492 c 1.297,1.299 0.432,49.877 -1.304,63.104 -3.903,31.662 -9.975,61.153 -19.947,94.335 -2.386,8.018 -4.558,14.745 -4.987,15.177 -0.872,1.083 -30.581,-27.975 -40.339,-39.251 -16.916,-19.518 -30.141,-39.035 -39.9,-58.117 -4.988,-9.759 -12.793,-28.84 -12.144,-29.492 3.469,-2.385 117.753,-46.622 118.621,-45.756 z m -141.826,55.731 c 0.216,0 0.432,0 0.652,0.216 0.432,0.434 1.953,3.905 3.254,7.807 6.937,18.867 22.548,46.624 35.997,64.407 14.746,19.518 34.048,40.334 50.091,53.996 5.207,4.337 9.975,8.456 10.624,9.108 1.304,1.302 1.737,1.083 -33.612,14.53 -40.981,15.613 -85.656,31.226 -136.835,47.706 a 6825.474,6825.474 0 0 0 -36.643,11.928 c -1.955,0.652 -1.303,-0.434 4.335,-9.323 25.371,-39.686 63.97,-117.536 85.657,-172.618 3.687,-9.542 7.373,-19.082 8.025,-21.251 0.868,-3.038 1.95,-4.121 4.768,-5.64 1.518,-0.43 3.038,-0.866 3.687,-0.866 z m -43.367,17.999 c 0.649,0.436 -10.411,23.637 -21.254,44.889 -21.036,40.985 -44.022,81.323 -74.815,130.331 -5.204,8.456 -10.19,16.265 -10.842,17.132 -1.083,1.519 -1.519,1.083 -4.988,-5.638 -7.373,-14.53 -13.447,-33.181 -16.699,-50.313 -3.254,-16.916 -2.602,-46.406 1.086,-64.621 2.816,-13.444 2.602,-13.227 9.107,-16.481 27.757,-14.095 117.537,-56.166 118.405,-55.299 z m 374.073,15.182 v 9.107 c 0,48.359 -5.204,114.716 -12.797,163.077 -1.301,8.456 -2.389,15.393 -2.602,15.613 0,0 -6.288,-1.733 -13.661,-3.905 -32.527,-10.193 -67.875,-25.156 -99.754,-42.718 -21.038,-11.494 -51.612,-30.363 -50.743,-31.231 0.213,-0.215 9.323,-4.986 19.947,-10.625 42.509,-22.118 83.274,-45.972 118.622,-69.609 13.229,-8.892 33.176,-23.202 37.518,-27.107 z m -537.802,64.185 c 0.867,0 0.65,1.735 -0.651,9.542 -0.868,5.64 -1.951,16.049 -2.382,23.202 -1.739,31.662 3.469,55.084 19.082,87.177 4.337,8.892 7.809,16.265 7.589,16.48 -1.519,1.303 -145.074,43.375 -190.183,55.734 -13.444,3.685 -25.152,6.939 -26.024,7.153 -1.515,0.436 -1.733,0.22 -1.083,-3.47 4.987,-31.875 29.276,-73.512 63.104,-108.644 22.554,-23.419 40.554,-37.08 71.347,-54.648 22.119,-12.575 56.165,-31.439 58.767,-32.309 0.002,-0.217 0.218,-0.217 0.434,-0.217 z m 338.295,60.503 c 0.216,-0.216 5.42,2.605 11.708,6.29 46.408,26.891 111.03,51.83 166.108,64.623 l 4.991,1.086 -6.941,3.899 c -28.84,16.049 -123.606,55.515 -220.538,91.732 -14.098,5.202 -27.975,10.409 -30.581,11.492 -2.602,1.083 -4.988,1.735 -4.988,1.519 0,-0.22 3.906,-7.809 8.89,-17.132 27.107,-50.744 54.433,-112.547 68.311,-155.485 1.739,-4.12 2.82,-7.805 3.04,-8.024 z m -34.48,11.278 c 0.22,0.221 -1.517,4.771 -3.687,9.975 -18.865,45.756 -43.59,95.636 -75.249,151.583 -8.022,14.314 -14.746,25.808 -14.966,25.808 -0.213,0 -6.721,-3.906 -14.527,-8.676 -45.976,-28.192 -86.743,-62.888 -113.414,-96.501 l -3.905,-4.771 19.732,-5.422 c 70.696,-19.298 130.762,-40.116 190.4,-65.704 8.459,-3.471 15.4,-6.292 15.616,-6.292 z m 214.253,74.815 c 0,0 0.217,0.217 0,0 0.216,4.988 -10.844,49.661 -19.953,81.969 -7.589,27.107 -14.098,48.361 -26.022,85.874 -5.204,16.485 -9.755,30.143 -9.975,30.143 -0.216,0 -1.517,-0.216 -2.818,-0.647 -64.405,-11.714 -122.089,-27.977 -176.303,-49.661 -15.182,-6.074 -36.866,-15.833 -38.167,-16.916 -0.432,-0.438 12.58,-6.506 29.06,-13.663 98.669,-43.154 201.024,-92.164 236.153,-113.196 4.119,-2.603 7.373,-3.903 8.025,-3.903 z m -494.646,16.916 c 0.434,0.432 -27.107,40.118 -65.709,94.114 -13.444,18.867 -29.057,40.985 -34.911,49.225 -5.856,8.241 -14.746,21.253 -19.734,29.06 l -9.112,14.096 -9.759,-8.24 c -11.494,-9.544 -31.442,-29.927 -40.333,-41.204 -18.651,-23.201 -31.226,-47.706 -36.214,-70.04 -2.386,-10.411 -2.386,-15.618 -0.22,-16.265 3.252,-0.867 61.153,-14.53 115.37,-27.11 30.143,-6.937 65.054,-15.177 77.632,-18.213 12.579,-3.041 22.774,-5.423 22.99,-5.423 z m 27.756,10.626 6.937,7.806 c 31.231,34.914 63.108,60.724 101.708,83.272 6.941,3.906 12.144,7.373 11.708,7.594 -1.514,1.083 -134.016,48.136 -195.385,69.389 -34.478,12.143 -62.888,21.901 -63.102,21.901 -0.216,0 -2.169,-1.299 -4.341,-2.818 l -3.901,-2.82 6.288,-9.106 c 20.383,-29.493 45.976,-61.803 101.707,-129.028 z m 173.053,123.822 c 0.213,-0.215 9.755,3.252 21.464,7.594 28.195,10.624 50.527,17.345 80.456,24.936 36.866,9.326 90.211,18.434 121.657,21.035 4.771,0.432 7.373,0.868 6.505,1.519 -1.521,0.868 -33.395,11.494 -56.816,18.867 -37.302,11.708 -151.149,45.32 -243.962,71.995 -17.132,4.987 -31.879,9.108 -32.746,9.323 -2.166,0.436 -9.325,-1.519 -9.325,-2.386 0,-0.431 5.204,-7.153 11.494,-14.527 31.225,-37.3 62.238,-78.935 88.044,-118.403 7.154,-10.846 13.229,-19.736 13.229,-19.953 z m -38.17,1.087 c 0.216,0.216 -15.179,24.936 -42.066,67.439 -11.496,17.999 -24.291,38.383 -28.846,45.54 -4.337,6.939 -10.842,17.784 -14.527,23.854 l -6.29,11.061 -3.252,-0.868 c -7.809,-2.169 -62.672,-21.471 -77.202,-27.325 -18,-7.157 -36.649,-15.829 -50.529,-23.202 -17.346,-9.326 -39.03,-23.206 -37.297,-23.637 0.433,-0.216 30.143,-8.243 65.922,-17.999 94.984,-25.809 147.678,-40.77 182.161,-51.612 6.29,-1.952 11.71,-3.471 11.926,-3.251 z m 269.985,63.318 h 0.216 c 0.868,2.171 -34.26,99.755 -47.06,130.547 -2.815,6.939 -3.896,8.677 -5.417,8.456 -3.687,-0.213 -54.646,-7.37 -85.66,-11.925 -53.994,-8.24 -144.641,-24.073 -167.409,-29.275 l -5.204,-1.083 32.307,-7.378 c 69.396,-15.613 102.791,-24.069 136.619,-34.478 42.722,-13.011 85.011,-29.276 127.729,-49.225 6.722,-3.037 12.361,-5.422 13.879,-5.639 z"
         id="path7"
         style="fill:#ffffff" />
      <linearGradient
         id="b"
         gradientUnits="userSpaceOnUse"
         x1="-2882.7"
         y1="10288.81"
         x2="-2206.249"
         y2="10288.81"
         gradientTransform="matrix(0.1234,0,0,-0.1234,1158.33,1550.273)">
        <stop
           offset="0"
           stop-color="#939fab"
           id="stop9" />
        <stop
           offset="1"
           stop-color="#dcdee1"
           id="stop11" />
      </linearGradient>
      <path
         inkscape:connector-curvature="0"
         d="m 1114.983,145.414 c -4.771,-0.647 -81.757,27.11 -131.415,47.275 -67.01,27.327 -119.052,53.351 -151.148,75.899 -11.925,8.461 -26.891,23.422 -29.273,29.276 -0.867,2.169 -1.303,4.771 -1.303,7.373 l 29.06,27.541 69.175,22.119 164.594,29.493 188.228,32.312 1.953,-16.264 c -0.649,0 -1.085,-0.216 -1.73,-0.216 l -24.728,-3.905 -4.984,-8.89 c -25.59,-45.107 -53.781,-101.056 -70.261,-138.789 -12.793,-29.276 -24.938,-63.102 -31.662,-87.391 -3.687,-14.746 -4.119,-15.613 -6.501,-15.829 v -0.005 h -0.01 z m -3.474,11.063 h 0.223 c 0.213,0.214 1.081,6.29 1.95,13.442 3.683,30.364 10.411,59.635 21.035,91.297 8.022,23.855 8.022,22.555 -1.301,19.734 -22.119,-6.07 -121.221,-23.202 -193,-33.177 -11.494,-1.519 -21.253,-3.036 -21.253,-3.252 -0.867,-0.867 51.827,-28.41 75.031,-39.25 29.709,-13.665 111.246,-47.711 117.315,-48.794 z m -209.047,97.15 8.461,2.816 c 45.97,15.616 161.551,37.736 225.31,42.94 7.154,0.651 13.229,1.303 13.442,1.303 0.216,0.216 -5.852,3.469 -13.661,7.154 -30.79,15.397 -64.621,34.264 -88.042,48.794 -6.937,4.335 -13.229,7.807 -14.094,7.807 -0.868,0 -5.42,-0.868 -10.191,-1.519 l -8.674,-1.303 -21.683,-21.253 c -38.167,-37.08 -68.094,-65.704 -79.588,-76.549 z m -8.671,6.721 30.576,38.168 c 16.696,21.035 33.611,41.635 37.301,46.187 3.683,4.557 6.721,8.245 6.505,8.461 -0.868,0.65 -44.236,-7.809 -67.226,-13.011 -23.637,-5.423 -33.395,-8.025 -47.924,-12.577 l -11.928,-3.905 v -3.038 c 0.216,-14.53 18.651,-36.214 49.877,-58.331 z m 259.791,52.046 c 0.869,0 1.95,1.951 4.552,7.806 7.373,16.263 30.364,60.07 35.997,68.526 1.74,2.822 4.771,3.038 -25.802,-1.95 -73.512,-11.93 -97.152,-15.829 -97.152,-16.263 0,-0.216 2.169,-1.735 4.988,-3.254 22.771,-12.575 45.756,-28.624 66.142,-45.756 4.988,-4.121 9.542,-8.024 10.407,-8.676 0.216,-0.433 0.652,-0.649 0.868,-0.433 z"
         id="path14"
         style="fill:#ffffff" />
      <radialGradient
         id="c"
         cx="-14217.448"
         cy="7277.7051"
         r="898.12"
         gradientTransform="matrix(-0.1185,-0.0178,-0.036,0.237,-198.955,-1314.415)"
         gradientUnits="userSpaceOnUse">
        <stop
           offset="0"
           stop-color="#ee352c"
           id="stop16" />
        <stop
           offset="1"
           stop-color="#a91d22"
           id="stop18" />
      </radialGradient>
      <path
         inkscape:connector-curvature="0"
         d="m 804.66,294.828 c 0,0 -4.768,7.593 -0.215,18.87 2.822,6.937 11.061,15.393 20.384,24.069 0,0 96.5,94.114 108.211,107.561 53.344,61.585 76.549,122.305 78.718,206.012 1.301,53.78 -8.894,101.054 -34.264,155.919 -45.106,98.453 -140.307,207.098 -287.117,327.67 l 21.472,-7.157 c 13.878,-10.411 32.745,-21.467 76.982,-45.756 102.137,-55.952 217.071,-107.346 358.028,-160.258 202.971,-76.335 536.715,-165.681 726.676,-194.736 l 19.737,-3.038 -3.038,-4.771 c -17.345,-26.891 -29.276,-43.587 -43.59,-61.369 -41.633,-51.612 -92.157,-93.463 -153.964,-128.161 -85.007,-47.489 -194.956,-84.571 -334.173,-112.112 -26.239,-5.207 -83.923,-15.181 -130.763,-22.337 -99.321,-15.393 -163.51,-26.021 -234.203,-38.165 -25.37,-4.339 -63.323,-10.843 -88.478,-16.263 -13.011,-2.822 -37.947,-8.676 -57.464,-15.398 -15.613,-6.075 -38.168,-12.147 -42.939,-30.58 z m 55.952,54.216 c 0.214,-0.214 3.683,1.083 8.24,2.602 8.24,2.816 18.865,6.07 31.446,9.542 a 1599.47,1599.47 0 0 0 28.624,7.589 c 13.011,3.251 23.852,6.288 24.068,6.288 1.521,1.519 23.424,71.558 30.797,98.449 2.815,10.195 4.988,18.867 4.771,18.867 -0.223,0.22 -2.605,-3.469 -5.423,-8.456 -25.373,-44.673 -65.491,-89.995 -111.899,-126.428 -6.069,-4.333 -10.624,-8.237 -10.624,-8.453 z m 106.692,29.492 c 1.085,0 5.856,0.651 11.708,1.951 36.866,8.24 103.008,20.818 145.293,27.975 7.157,1.083 12.797,2.387 12.797,2.818 0,0.436 -2.605,1.951 -5.859,3.688 -7.153,3.685 -35.997,20.815 -45.536,27.322 -24.073,16.047 -45.756,33.395 -61.371,49.008 -6.288,6.29 -11.712,11.494 -11.712,11.494 0,0 -1.297,-3.685 -2.386,-8.242 -7.802,-30.143 -24.069,-74.816 -38.815,-106.258 -2.386,-4.986 -4.339,-9.541 -4.339,-9.973 0,0.433 0,0.217 0.22,0.217 z m 187.795,35.781 c 1.301,0.432 3.47,7.806 7.806,24.069 8.025,31.446 11.712,66.576 10.411,99.321 -0.436,9.108 -0.868,17.564 -1.304,18.651 l -0.649,2.166 -11.276,-3.685 c -23.204,-7.373 -60.935,-18.435 -93.245,-27.541 -18.436,-4.988 -33.395,-9.542 -33.395,-9.975 0,-1.303 26.891,-28.192 38.383,-38.383 21.898,-19.303 81.316,-65.275 83.269,-64.623 z m 14.963,2.166 c 0.652,-0.647 89.779,14.746 130.331,22.554 30.145,5.854 73.948,14.963 76.549,16.049 1.301,0.432 -3.254,3.034 -17.784,9.539 -57.248,25.808 -99.754,49.008 -142.036,77.202 -11.06,7.373 -20.386,13.444 -20.602,13.444 -0.216,0 -0.433,-6.287 -0.433,-13.878 0,-41.201 -8.241,-82.838 -23.424,-117.968 -1.517,-3.47 -2.818,-6.722 -2.601,-6.942 z m 230.516,45.542 c 0.652,0.65 -2.169,18.217 -4.771,28.624 -7.806,32.312 -28.84,80.24 -54.643,125.343 -4.558,8.024 -8.677,14.53 -9.114,14.746 -0.429,0.216 -6.285,-3.038 -13.009,-6.941 -25.154,-14.746 -53.778,-28.624 -85.007,-41.637 -8.671,-3.685 -16.263,-6.723 -16.48,-7.153 -1.521,-1.303 68.308,-47.493 105.174,-69.612 29.276,-17.781 76.982,-44.239 77.85,-43.37 z m 16.48,2.601 c 1.953,0 41.421,10.844 62.019,16.916 50.963,15.181 109.512,36.648 147.679,53.996 l 15.828,7.159 -11.056,2.6 c -93.245,21.467 -173.049,46.192 -250.034,77.418 -6.289,2.602 -11.928,4.771 -12.357,4.771 -0.436,0 1.733,-4.987 4.552,-11.061 23.204,-49.225 38.167,-100.62 41.85,-144.427 0.221,-4.121 0.867,-7.372 1.519,-7.372 z m -392.938,90.213 c 0.649,-0.652 30.793,6.506 47.057,11.056 24.721,6.942 77.198,24.505 77.198,25.808 0,0.216 -5.853,5.204 -12.79,11.278 -28.408,23.637 -55.734,48.572 -88.481,80.234 -9.759,9.328 -17.997,16.917 -18.429,16.917 -0.436,0 -0.649,-1.304 -0.436,-3.038 4.987,-36.433 3.906,-83.272 -3.034,-130.763 -0.653,-6.074 -1.302,-11.276 -1.085,-11.492 z m 633.433,0.652 c 0.429,0.431 -13.881,22.984 -22.988,35.777 -13.009,18.649 -32.098,43.375 -75.252,97.588 -22.765,28.622 -48.358,60.936 -56.812,71.778 -8.678,10.842 -15.831,19.948 -16.051,19.948 -0.216,0 -3.031,-3.901 -6.069,-8.671 -24.289,-36.433 -53.349,-68.311 -87.829,-96.935 -6.505,-5.423 -13.658,-11.278 -16.044,-13.013 -2.386,-1.734 -4.339,-3.469 -4.339,-3.685 0,-0.649 36.862,-16.483 64.841,-27.757 49.01,-19.952 115.794,-43.805 165.892,-59.203 26.24,-8.239 54.215,-16.263 54.651,-15.827 z m 16.696,4.334 c 0.865,-0.215 6.072,2.387 12.361,6.07 52.697,30.143 104.305,68.962 145.077,108.864 11.492,11.278 39.9,40.77 39.464,40.986 0,0 -9.975,0.867 -21.683,1.733 -91.296,6.942 -208.178,26.239 -320.511,53.345 -7.589,1.733 -14.31,3.252 -14.746,3.252 -0.429,0 8.025,-8.456 18.653,-18.647 65.922,-63.538 96.067,-103.656 131.628,-175.22 4.986,-10.623 9.325,-19.731 9.757,-20.383 -0.216,0 -0.216,0 0,0 z m -482.936,49.446 c 3.038,0.647 31.229,13.88 52.48,24.503 19.517,9.755 48.794,25.372 50.311,26.671 0.216,0.216 -10.195,5.638 -22.984,11.928 -40.772,20.384 -75.684,39.682 -112.118,61.802 -10.408,6.29 -19.082,11.497 -19.298,11.497 -0.868,0 -0.652,-0.872 5.204,-11.497 19.518,-35.561 35.129,-78.065 44.023,-119.486 0.864,-3.252 1.733,-5.418 2.382,-5.418 z m -28.192,5.202 c 0.652,0.652 -6.721,27.323 -11.273,41.853 -8.894,27.541 -23.856,62.02 -38.383,88.043 -3.474,6.069 -8.677,14.961 -11.496,19.948 l -5.42,8.674 -12.144,-11.707 c -14.094,-13.663 -25.59,-22.12 -40.333,-29.712 -5.859,-3.033 -10.411,-5.638 -10.411,-6.069 0,-1.735 37.082,-35.347 65.49,-59.635 20.383,-17.566 63.321,-52.045 63.97,-51.395 z m 172.404,70.913 10.627,6.937 c 24.282,15.833 52.906,36.866 74.813,55.298 12.357,10.19 36.21,31.662 40.985,36.866 l 2.598,2.822 -17.561,4.986 c -99.321,27.538 -176.087,52.043 -265.649,85.007 -9.975,3.685 -18.433,6.721 -19.085,6.721 -1.297,0 -2.385,1.083 19.954,-19.519 57.251,-52.691 107.992,-110.812 145.726,-167.411 z m -45.324,11.276 c 0.432,0.432 -29.276,42.284 -47.06,65.922 -21.251,28.192 -58.985,75.465 -85.007,106.256 -10.84,12.797 -20.163,23.422 -20.599,23.64 -0.652,0.216 -0.868,-3.036 -0.868,-8.024 0,-26.242 -6.721,-54.216 -18.433,-78.068 -4.988,-9.975 -5.856,-12.361 -4.768,-13.444 4.119,-3.688 67.223,-39.686 107.123,-61.153 26.89,-14.312 68.956,-35.563 69.612,-35.129 z m -274.107,67.225 c 0.652,0 5.64,2.6 11.279,5.638 13.878,7.589 26.239,16.046 37.298,25.156 0.432,0.432 -5.204,4.988 -12.577,10.406 -20.602,14.746 -51.828,38.385 -70.041,52.915 -19.088,15.18 -19.734,15.613 -17.568,12.361 14.314,-21.903 21.467,-34.264 29.06,-50.093 6.721,-14.094 13.442,-30.793 18.213,-45.323 1.734,-6.289 3.904,-11.06 4.336,-11.06 z m 73.083,57.248 c 1.081,-0.214 2.386,1.735 8.238,10.411 12.361,18.429 21.903,43.154 24.292,63.104 l 0.429,4.339 -29.705,11.494 c -53.133,20.599 -102.139,40.985 -135.322,56.162 -9.322,4.339 -25.587,12.144 -36.211,17.352 -10.627,5.418 -19.301,9.539 -19.301,9.323 0,-0.216 6.721,-5.204 14.961,-11.278 64.844,-47.055 121.007,-98.669 163.076,-150.279 4.555,-5.423 8.677,-10.411 9.107,-10.627 z m -33.612,8.242 c 0.868,0.867 -23.853,28.84 -40.768,45.971 -41.853,42.723 -83.273,76.12 -134.669,108.649 -6.505,4.119 -12.359,7.804 -13.011,8.24 -1.519,0.867 0.432,-1.303 22.986,-25.808 14.314,-15.397 25.155,-28.408 37.516,-44.453 8.24,-10.624 9.759,-12.143 21.688,-20.604 31.878,-22.987 105.39,-72.864 106.258,-71.995 z"
         id="path21"
         style="fill:#ffffff" />
    </g>
    <path
       inkscape:connector-curvature="0"
       d="m 761.85302,514.63859 c -0.902,0 -1.80439,0.086 -2.69845,0.086 -18.22023,0.97096 -30.50894,8.98942 -37.694,24.64832 -6.14513,14.16206 -5.47419,32.67399 0.069,46.9228 6.44592,13.92269 16.8617,21.27062 34.24729,24.04597 3.67855,0.60237 6.14516,2.62196 13.26956,10.94046 l 8.76632,10.27032 h 15.89906 l -10.57189,-10.65751 c -5.84394,-5.84353 -10.5707,-10.93174 -10.5707,-11.37876 0,-0.44665 2.23556,-1.42632 4.94155,-2.25103 8.92087,-2.69965 16.32904,-9.59146 21.51115,-20.15383 4.19414,-8.48177 4.79613,-11.10374 5.39731,-21.65661 1.57296,-31.41135 -14.98834,-51.04954 -42.56696,-50.82525 z m 13.93931,82.14263 c -7.73472,3.74628 -18.96607,4.49411 -26.29735,1.80438 -7.58017,-2.78405 -14.91941,-10.65631 -18.22024,-19.56846 -3.66941,-9.74559 -3.1455,-27.72408 1.04862,-35.82063 6.74634,-12.89109 15.66761,-18.82064 28.70454,-18.82064 19.33663,0 30.33695,11.84324 31.77237,34.10145 1.13461,18.58089 -5.08781,32.52021 -16.99961,38.29597 z m 274.65097,-55.31183 c -6.6691,0 -11.774,2.69925 -15.2123,8.0177 l -2.6984,4.21155 v -10.94919 h -11.5418 v 65.65945 h 11.5343 v -20.98687 c 0,-19.19077 0.24,-21.43387 2.9212,-26.68536 3.6958,-7.20171 10.0547,-10.79304 16.2005,-9.07425 l 4.1249,1.20318 v -11.37878 h -5.3284 z m -67.80733,-0.60198 c -2.26117,0 -4.6591,0.30118 -7.047,0.82592 -15.44433,4.03835 -24.15005,18.82021 -23.61744,34.03208 0,12.73691 2.4747,19.10439 8.62047,25.78258 12.59066,10.32975 23.97756,11.15447 39.34336,5.61209 2.62174,-1.11716 5.47454,-2.40635 5.47454,-2.40635 v -10.32976 l -5.47454,2.83597 c -12.43559,5.41396 -21.80319,5.41396 -29.30648,-0.96303 -4.78572,-4.873 -6.89214,-10.71693 -7.86274,-17.38523 h 46.53676 v -8.8531 c 0,-18.04743 -10.86282,-29.44324 -26.67642,-29.15117 z m -18.82147,28.79053 c 0,0 1.71906,-11.25791 8.09568,-15.67556 3.06897,-2.16621 6.59181,-3.21403 10.03765,-3.21403 3.45534,0 6.90141,1.11681 9.74615,3.29173 5.84466,4.49452 6.82386,15.51264 6.82386,15.51264 h -34.70301 v 0.0853 z M 685.56268,557.81589 c -12.51263,-7.58058 -18.06449,-13.04682 -17.38562,-19.49237 1.9419,-17.83265 23.97777,-15.36604 36.18087,-8.61933 l 0.0868,-11.99699 c 0,0 -6.74674,-2.92199 -16.41543,-3.07694 -14.8334,-0.22354 -24.42443,4.64038 -28.91856,14.54091 -6.6009,14.60991 -0.75615,25.62723 20.36862,37.91752 11.85949,6.90048 17.10144,12.89106 17.10144,19.42221 0,13.49308 -16.26841,18.20283 -33.05242,9.73728 -3.45423,-1.71876 -6.37659,-3.1542 -6.53114,-3.1542 -0.602,3.82477 -0.2917,12.97708 -0.2917,12.97708 0,0 5.15676,2.16621 12.89071,3.66028 19.18127,3.82437 36.63662,-5.17337 38.28645,-19.78324 1.43542,-13.71581 -3.52437,-20.90956 -22.31924,-32.14214 z m 467.02992,-17.10265 c -2.2518,0 -4.6412,0.30913 -7.1336,0.83344 -15.4259,4.03915 -24.1154,18.82143 -23.5222,34.03328 0,12.71949 2.4669,19.02712 8.6112,25.69576 12.5911,10.33929 23.9782,11.17233 39.4219,5.62125 2.6123,-1.1168 5.4571,-2.38816 5.4571,-2.38816 v -10.34718 l -5.4654,2.85222 c -12.4611,5.39732 -21.8294,5.39732 -29.3057,-0.97928 -4.8133,-4.86427 -6.9014,-10.63966 -7.8728,-17.38639 h 46.4601 v -8.85191 c 0,-17.96106 -10.8637,-29.36598 -26.6768,-29.06481 z m -18.8213,28.79015 c 0,0 1.736,-11.24126 8.104,-15.74488 3.0599,-2.17377 6.5829,-3.2228 10.0293,-3.2228 3.4376,0 6.9014,1.11719 9.7468,3.30006 5.844,4.49492 6.824,15.58993 6.824,15.58993 h -34.6946 z M 922.2188,557.96173 c -12.51257,-7.56274 -18.04778,-13.04643 -17.37741,-19.49239 1.94208,-17.84175 23.97826,-15.36604 36.18134,-8.6193 l 0.0871,-11.99702 c 0,0 -6.74688,-2.92236 -16.41548,-3.06029 -14.83352,-0.22302 -24.42434,4.64116 -28.92684,14.54133 -6.59186,14.60949 -0.67062,25.62761 20.3849,37.91751 11.8433,6.89298 17.08509,12.80549 17.08509,19.33661 0,13.4931 -16.25997,18.28009 -33.0445,9.73689 -3.43757,-1.71877 -6.35907,-3.13715 -6.53109,-3.13715 -0.60185,3.82396 -0.29156,12.97747 -0.29156,12.97747 0,0 5.0956,2.08856 12.80466,3.6607 19.19898,3.83309 36.66238,-5.15674 38.30413,-19.76663 1.42678,-13.64764 -3.5235,-20.84062 -22.25949,-32.08188 v -0.015 z m 298.1901,-16.64689 c -6.6692,0 -11.8335,2.70638 -15.2117,8.02682 l -2.6991,4.19371 v -10.93135 h -11.5417 v 65.64158 h 11.5334 v -20.98608 c 0,-19.18244 0.23,-21.43425 2.9227,-26.6766 3.6952,-7.19301 10.054,-10.79344 16.199,-9.06674 l 4.1247,1.20279 v -11.40374 h -5.3273 z M 830.434,557.58326 V 515.7637 h -11.63597 v 92.62812 h 48.93514 v -10.93966 h -37.29876 v -39.8689 z m 269.0985,13.03692 -9.5908,24.95744 -9.2221,-25.09494 -9.3676,-27.81008 h -11.911 c 7.718,21.88091 16.113,44.13912 24.5789,65.71922 3.6699,0.0855 7.348,0 11.0171,0 l 12.952,-32.52018 13.192,-33.19072 h -11.3867 c 0,0 -5.0284,13.18356 -10.2701,27.94798 z M 857.24741,490.5229 c 1.8738,0 3.43757,-0.60081 4.72678,-1.89 1.27122,-1.27256 1.94183,-2.76781 1.94183,-4.64116 0,-1.87376 -0.67061,-3.43797 -1.94183,-4.64115 -1.28921,-1.2028 -2.77621,-1.8052 -4.64127,-1.8052 -1.88981,0 -3.45455,0.6024 -4.7267,1.87374 -1.28879,1.27256 -1.87336,2.83677 -1.87336,4.64158 0,1.89076 0.602,3.4542 1.87336,4.64115 1.20358,1.20238 2.76787,1.80438 4.64119,1.80438 z m -4.1248,-10.65633 c 1.11679,-1.11678 2.47502,-1.63316 4.2108,-1.63316 1.63303,0 2.99126,0.51638 4.12595,1.63316 1.11719,1.1172 1.71878,2.47494 1.71878,4.12517 0,1.64983 -0.60159,3.07692 -1.71878,4.19373 -1.13419,1.11639 -2.49292,1.64983 -4.12595,1.64983 -1.65852,0 -3.00803,-0.51561 -4.12481,-1.64983 -1.11718,-1.11681 -1.71879,-2.5439 -1.71879,-4.19373 0,-1.65023 0.51561,-3.00758 1.6328,-4.12517 z m 2.77532,4.72718 h 0.75612 c 0.5336,0 1.05743,0.51519 1.50401,1.49525 l 0.90314,2.02752 h 1.41775 l -1.11694,-2.25224 c -0.45533,-0.9016 -0.90191,-1.42588 -1.42674,-1.57293 0.66186,-0.15454 1.18594,-0.3777 1.56426,-0.82512 0.37732,-0.38601 0.51534,-0.9107 0.51534,-1.50398 0,-0.68718 -0.21504,-1.20239 -0.66987,-1.58088 -0.51608,-0.4296 -1.34097,-0.66141 -2.40715,-0.66141 h -2.38815 v 8.39656 h 1.20271 v -3.52358 z m 0,-3.90206 h 1.04892 c 0.75638,0 1.28922,0.15453 1.58127,0.37769 0.28379,0.22353 0.36105,0.51639 0.36105,1.0486 0,0.97096 -0.60234,1.42711 -1.71878,1.42711 h -1.28872 v -2.8534 z m -192.21618,3.15383 c 0,-2.92198 -0.0855,-5.09573 -0.15453,-6.37659 h 0.0691 c 0.3004,1.5115 0.67016,2.63821 0.97096,3.38566 l 11.1719,24.95744 h 1.87374 l 11.1719,-25.18057 c 0.3016,-0.6868 0.6024,-1.7188 0.97174,-3.1542 h 0.0855 c -0.22304,2.49276 -0.3004,4.65818 -0.3004,6.38528 v 22.02718 h 3.82357 V 473.146 h -4.7953 l -10.26953,22.7742 c -0.37847,0.902 -0.90278,2.2522 -1.57294,4.03955 h -0.15528 c -0.22304,-0.88534 -0.74745,-2.23478 -1.49487,-3.88498 l -10.03846,-23.00684 h -5.09573 v 32.7433 h 3.67815 v -21.94948 z m 38.06333,0.061 h 3.30083 v 20.3932 h -3.30083 z m 1.65023,-7.47753 c 0.68799,0 1.27215,-0.23254 1.71877,-0.68719 0.45575,-0.44745 0.75695,-1.0316 0.75695,-1.71879 0,-0.67054 -0.22404,-1.27254 -0.74782,-1.71878 -0.46408,-0.45576 -1.05736,-0.6884 -1.73623,-0.6884 -0.66975,0 -1.27136,0.23255 -1.71918,0.6884 -0.45418,0.44624 -0.75576,1.04824 -0.75576,1.71878 0,0.74783 0.2323,1.27134 0.75576,1.71879 0.51679,0.45457 1.04903,0.68719 1.71918,0.68719 z m 25.18135,28.31815 v -3.59293 c -1.80517,1.34943 -3.74747,2.02037 -5.75833,2.02037 -2.40559,0 -4.35741,-0.82469 -5.7841,-2.40558 -1.41759,-1.56424 -2.17375,-3.73955 -2.17375,-6.44633 0,-2.83598 0.75616,-5.08861 2.31997,-6.80736 1.50401,-1.64984 3.45541,-2.47494 5.84476,-2.47494 1.95063,0 3.82317,0.60236 5.55185,1.80594 v -3.82436 c -1.57254,-0.82509 -3.36861,-1.20358 -5.3973,-1.20358 -3.74748,0 -6.66867,1.20358 -8.85154,3.52479 -2.16621,2.31996 -3.28339,5.47417 -3.28339,9.28151 0,3.38564 0.97096,6.23074 2.99132,8.40526 2.1052,2.234 4.79613,3.36862 8.09579,3.36862 2.55142,-0.0705 4.63955,-0.60358 6.44472,-1.65141 z m 9.44441,-10.87189 c 0,-2.69016 0.60161,-4.86388 1.71879,-6.36035 1.04903,-1.34863 2.32037,-2.02752 3.82437,-2.02752 1.27214,0 2.17414,0.2318 2.83557,0.75615 v -3.90203 c -0.51521,-0.22302 -1.26303,-0.3004 -2.23396,-0.3004 -1.34944,0 -2.55184,0.45416 -3.60919,1.2892 -1.11719,0.88415 -2.01086,2.23438 -2.53517,3.95317 h -0.0855 v -4.78741 h -3.73835 v 23.37619 h 3.74668 v -11.997 z m 21.51116,12.46108 c 3.52397,0 6.35994,-1.13464 8.46515,-3.38564 2.09645,-2.2356 3.14508,-5.24276 3.14508,-8.99064 0,-3.82316 -0.96184,-6.74555 -2.92156,-8.92089 -1.94191,-2.17294 -4.64116,-3.22276 -8.16513,-3.22276 -3.52397,0 -6.35994,1.04902 -8.46511,3.07693 -2.25144,2.23558 -3.43759,5.38939 -3.43759,9.43726 0,3.52357 0.96265,6.44596 2.99133,8.6201 2.09645,2.251 4.8726,3.37692 8.38783,3.37692 z m -5.32834,-19.04454 c 1.42671,-1.50401 3.30085,-2.25223 5.62044,-2.25223 2.40715,0 4.21156,0.74822 5.55226,2.25223 1.34902,1.57294 2.01996,3.81644 2.01996,6.81529 0,2.85263 -0.60197,5.09613 -1.87411,6.60008 -1.27136,1.57297 -3.1451,2.40601 -5.62085,2.40601 -2.40597,0 -4.27099,-0.83384 -5.6977,-2.40601 -1.41759,-1.58124 -2.09685,-3.74745 -2.09685,-6.60008 -0.14578,-2.83597 0.60198,-5.15596 2.09685,-6.81529 z m 33.3457,17.00793 c 1.42631,-1.27137 2.18326,-2.8356 2.18326,-4.79611 0,-1.71879 -0.6024,-3.1451 -1.71918,-4.27101 -0.91151,-0.9016 -2.32,-1.71879 -4.35701,-2.54391 -1.80558,-0.75537 -2.92237,-1.42668 -3.52437,-1.95103 -0.6012,-0.60117 -0.97094,-1.34825 -0.97094,-2.40597 0,-0.97096 0.37847,-1.71879 1.11799,-2.32037 0.75615,-0.60083 1.71876,-0.8929 3.00795,-0.8929 2.0196,0 3.74671,0.53224 5.32758,1.65856 v -3.74749 c -1.51231,-0.75537 -3.15381,-1.11638 -5.02758,-1.11638 -2.40597,0 -4.43427,0.66221 -5.93032,1.94148 -1.57296,1.27296 -2.31998,2.92278 -2.31998,4.86431 0,1.71877 0.51518,3.14588 1.49447,4.19371 0.82512,0.89407 2.23558,1.80557 4.1941,2.62118 1.87414,0.8255 3.14591,1.57255 3.82437,2.17375 0.67017,0.60238 0.97097,1.34942 0.97097,2.23557 0,2.18204 -1.49488,3.30876 -4.41725,3.30876 -2.25182,0 -4.27061,-0.7395 -6.07657,-2.23438 v 4.03798 c 1.63318,0.98086 3.59291,1.42711 5.75835,1.42711 2.77611,-0.14577 4.94988,-0.82473 6.44553,-2.17414 z m 17.84136,-22.48253 c -3.52436,0 -6.35994,1.04903 -8.46551,3.07695 -2.23441,2.23555 -3.43758,5.38937 -3.43758,9.43726 0,3.52356 0.97173,6.44592 2.99092,8.62007 2.10558,2.25102 4.87262,3.37694 8.39656,3.37694 3.60918,0 6.35994,-1.13382 8.46515,-3.38644 2.10557,-2.234 3.1538,-5.24197 3.1538,-8.98944 0,-3.82437 -0.97966,-6.74595 -2.92237,-8.92049 -2.02711,-2.17452 -4.72676,-3.22317 -8.16432,-3.22317 z m 7.27025,12.29029 c 0,2.85263 -0.60158,5.09614 -1.87334,6.60008 -1.27214,1.57297 -3.14588,2.40601 -5.62122,2.40601 -2.40717,0 -4.27139,-0.83385 -5.69851,-2.40601 -1.41758,-1.58124 -2.09647,-3.74745 -2.09647,-6.60008 0,-3.00798 0.74825,-5.32797 2.25223,-6.89298 1.41719,-1.49526 3.29172,-2.25183 5.62041,-2.25183 2.32,0 4.1854,0.75578 5.53406,2.25183 1.20358,1.64983 1.87414,3.89333 1.87414,6.89298 z m 10.12447,11.69621 h 3.73838 v -20.23864 h 5.47419 v -3.14588 h -5.4746 v -3.60956 c 0,-3.2822 1.27135,-4.93245 3.90164,-4.93245 0.88535,0 1.78775,0.22304 2.45832,0.60161 v -3.37695 c -0.67057,-0.3008 -1.57297,-0.36934 -2.69966,-0.36934 -2.01919,0 -3.66902,0.60199 -5.01885,1.87335 -1.57293,1.49527 -2.40597,3.43754 -2.40597,6.06826 v 3.8331 h -3.95437 v 3.14507 h 3.95437 v 20.16254 z m 15.3569,-6.37699 c 0,4.57259 2.02039,6.9013 6.14516,6.9013 1.49565,0 2.62116,-0.24003 3.52356,-0.7732 v -3.21404 c -0.68718,0.51599 -1.504,0.75696 -2.40597,0.75696 -1.27136,0 -2.16544,-0.302 -2.69016,-0.98087 -0.53301,-0.66936 -0.83341,-1.8048 -0.83341,-3.36902 v -13.19148 h 5.92915 v -3.1459 h -5.92915 v -6.89176 c -1.28919,0.44663 -2.55223,0.82508 -3.7475,1.20237 v 5.68901 h -4.03916 v 3.1459 h 4.03916 v 13.86243 z m 402.20443,43.09053 c -1.2719,-1.2024 -2.7758,-1.80441 -4.6404,-1.80441 -1.8903,0 -3.4553,0.60201 -4.727,1.8908 -1.272,1.26341 -1.8743,2.83557 -1.8743,4.64115 0,1.87374 0.6023,3.43798 1.8646,4.64038 1.2727,1.20318 2.8359,1.80556 4.7272,1.80556 1.8646,0 3.4376,-0.60238 4.7271,-1.87414 1.2634,-1.2892 1.9336,-2.77572 1.9336,-4.64036 -0.07,-1.89079 -0.7476,-3.4554 -2.0197,-4.65818 z m -0.6012,8.85271 c -1.1177,1.11678 -2.4754,1.6324 -4.1257,1.6324 -1.6322,0 -2.99,-0.51562 -4.1247,-1.6324 -1.1167,-1.13464 -1.719,-2.55263 -1.719,-4.21159 0,-1.63314 0.5156,-2.99012 1.65,-4.12474 1.1169,-1.11641 2.4672,-1.63317 4.1937,-1.63317 1.6333,0 2.9918,0.51676 4.1257,1.63317 1.1167,1.13462 1.7183,2.4916 1.7183,4.12474 0,1.73663 -0.5156,3.07695 -1.7183,4.21159 z m -3.3694,-3.82477 c 0.6702,-0.15452 1.2036,-0.45534 1.5728,-0.82471 0.3786,-0.38719 0.5163,-0.9119 0.5163,-1.51193 0,-0.67054 -0.2149,-1.20358 -0.67,-1.57293 -0.5156,-0.43 -1.349,-0.66222 -2.4054,-0.66222 h -2.3895 v 8.38744 h 1.2036 v -3.52358 h 0.747 c 0.5164,0 1.0319,0.51521 1.4953,1.49528 l 0.8934,2.01959 h 1.4275 l -1.1169,-2.25223 c -0.3871,-0.97966 -0.8342,-1.42711 -1.2887,-1.57334 z m -0.8251,-0.75574 h -1.2889 v -2.83559 h 1.0574 c 0.7479,0 1.2717,0.13678 1.573,0.36934 0.3004,0.22304 0.3693,0.51562 0.3693,1.04865 0,0.97094 -0.6015,1.41837 -1.7183,1.41837 z m -209.0855,-65.3412 h 1.0487 v -8.39658 h 2.7749 v -1.04863 h -6.5993 v 1.04863 h 2.7765 v 8.39658 z m 6.3595,-6.30803 c 0,-0.81716 0,-1.48733 -0.06,-1.86461 0.071,0.44622 0.2226,0.74782 0.2927,0.97096 l 3.223,7.20168 h 0.5155 l 3.2308,-7.27107 c 0.087,-0.22304 0.1551,-0.51558 0.3013,-0.90157 -0.07,0.74782 -0.07,1.34785 -0.07,1.80437 v 6.35995 h 1.1176 v -9.43689 h -1.3498 l -2.9212,6.51452 c -0.07,0.23254 -0.3019,0.6872 -0.4474,1.20358 h -0.085 c -0.06,-0.30161 -0.2151,-0.60201 -0.4296,-1.11679 l -2.9219,-6.6005 h -1.5123 v 9.4535 h 1.0564 v -6.308 z"
       id="path25"
       style="fill:#ffffff;stroke-width:0.39630732"
       inkscape:export-xdpi="96"
       inkscape:export-ydpi="96"
       inkscape:export-filename="/home/cryptocrawll/Pictures/SGBD - Banco de dados/Photos/sgbd.png" />
    <rect
       style="fill:#ffffff;fill-opacity:1;stroke:none;stroke-opacity:1"
       id="rect1498"
       width="1920.0905"
       height="296.8421"
       x="0"
       y="783.1579"
       inkscape:export-xdpi="96"
       inkscape:export-ydpi="96"
       inkscape:export-filename="/home/cryptocrawll/Pictures/SGBD - Banco de dados/Photos/sgbd.png" />
    <flowRoot
       xml:space="preserve"
       id="flowRoot1500"
       style="font-style:normal;font-weight:normal;font-size:40px;line-height:1.25;font-family:sans-serif;letter-spacing:0px;word-spacing:0px;fill:#333333;fill-opacity:1;stroke:none"
       transform="translate(308.94736,8.4210526)"
       inkscape:export-xdpi="96"
       inkscape:export-ydpi="96"
       inkscape:export-filename="/home/cryptocrawll/Pictures/SGBD - Banco de dados/Photos/sgbd.png"><flowRegion
         id="flowRegion1502"
         style="fill:#333333;fill-opacity:1"><rect
           id="rect1504"
           width="842.10529"
           height="258.94736"
           x="987.36841"
           y="821.05261"
           style="fill:#333333;fill-opacity:1" /></flowRegion><flowPara
         id="flowPara45">Nome: Jhonny Silva</flowPara><flowPara
         id="flowPara47">Nome: Thiago Ribeiro</flowPara><flowPara
         id="flowPara41">Nome: Vinicius Fantinatto</flowPara></flowRoot>    <flowRoot
       transform="translate(-911.57895,-43.684211)"
       style="font-style:normal;font-weight:normal;font-size:40px;line-height:1.25;font-family:sans-serif;letter-spacing:0px;word-spacing:0px;fill:#333333;fill-opacity:1;stroke:none"
       id="flowRoot1518"
       xml:space="preserve"
       inkscape:export-xdpi="96"
       inkscape:export-ydpi="96"
       inkscape:export-filename="/home/cryptocrawll/Pictures/SGBD - Banco de dados/Photos/sgbd.png"><flowRegion
         style="fill:#333333;fill-opacity:1"
         id="flowRegion1512"><rect
           style="fill:#333333;fill-opacity:1"
           y="821.05261"
           x="987.36841"
           height="252.63159"
           width="903.15784"
           id="rect1510" /></flowRegion><flowPara
         id="flowPara1524"
         style="line-height:0;text-align:justify;letter-spacing:0px;word-spacing:0px;text-anchor:start" /><flowPara
         id="flowPara1532"
         style="line-height:0;text-align:justify;letter-spacing:0px;word-spacing:0px;text-anchor:start">Curso: Analise e desenvolvimento de sistemas</flowPara><flowPara
         style="line-height:0;text-align:justify;letter-spacing:0px;word-spacing:0px;text-anchor:start"
         id="flowPara1544">Matéria: Banco de dados</flowPara><flowPara
         style="line-height:0;text-align:justify;letter-spacing:0px;word-spacing:0px;text-anchor:start"
         id="flowPara1546">Tema: SGBD</flowPara><flowPara
         style="line-height:0;text-align:justify;letter-spacing:0px;word-spacing:0px;text-anchor:start"
         id="flowPara1550">Semestre: 3º</flowPara></flowRoot>  </g>
</svg>
