<?xml version="1.0" encoding="UTF-8" standalone="no"?>
<!-- Created with Inkscape (http://www.inkscape.org/) -->

<svg
   xmlns:dc="http://purl.org/dc/elements/1.1/"
   xmlns:cc="http://creativecommons.org/ns#"
   xmlns:rdf="http://www.w3.org/1999/02/22-rdf-syntax-ns#"
   xmlns:svg="http://www.w3.org/2000/svg"
   xmlns="http://www.w3.org/2000/svg"
   xmlns:sodipodi="http://sodipodi.sourceforge.net/DTD/sodipodi-0.dtd"
   xmlns:inkscape="http://www.inkscape.org/namespaces/inkscape"
   width="1920px"
   height="1080px"
   viewBox="0 0 1920 1080"
   version="1.1"
   id="SVGRoot"
   inkscape:version="0.92.2pre0 (973e216, 2017-07-25)"
   sodipodi:docname="SGBD - Menu.svg">
  <sodipodi:namedview
     id="base"
     pagecolor="#ffffff"
     bordercolor="#666666"
     borderopacity="1.0"
     inkscape:pageopacity="0.0"
     inkscape:pageshadow="2"
     inkscape:zoom="0.475"
     inkscape:cx="516.00916"
     inkscape:cy="536.71161"
     inkscape:document-units="px"
     inkscape:current-layer="layer1"
     showgrid="false"
     inkscape:window-width="1366"
     inkscape:window-height="704"
     inkscape:window-x="0"
     inkscape:window-y="0"
     inkscape:window-maximized="1"
     showguides="true"
     inkscape:guide-bbox="true">
    <sodipodi:guide
       position="1014.2857,1080"
       orientation="0,1"
       id="guide818"
       inkscape:locked="false" />
    <sodipodi:guide
       position="928.57143,0"
       orientation="0,1"
       id="guide820"
       inkscape:locked="false" />
    <sodipodi:guide
       position="0,610.52632"
       orientation="1,0"
       id="guide822"
       inkscape:locked="false" />
    <sodipodi:guide
       position="1920,766.31579"
       orientation="1,0"
       id="guide824"
       inkscape:locked="false" />
    <sodipodi:guide
       position="240,905.26316"
       orientation="0,1"
       id="guide826"
       inkscape:locked="false" />
  </sodipodi:namedview>
  <defs
     id="defs1616">
    <linearGradient
       id="a"
       gradientUnits="userSpaceOnUse"
       x1="-2901.9519"
       y1="923.573"
       x2="-2061.249"
       y2="1420.3311"
       gradientTransform="matrix(0.1234,0,0,-0.1234,1158.33,1550.273)">
      <stop
         offset="0"
         stop-color="#909ca9"
         id="stop2" />
      <stop
         offset="1"
         stop-color="#ededee"
         id="stop4" />
    </linearGradient>
    <linearGradient
       id="b"
       gradientUnits="userSpaceOnUse"
       x1="-2882.7"
       y1="10288.81"
       x2="-2206.249"
       y2="10288.81"
       gradientTransform="matrix(0.1234,0,0,-0.1234,1158.33,1550.273)">
      <stop
         offset="0"
         stop-color="#939fab"
         id="stop9" />
      <stop
         offset="1"
         stop-color="#dcdee1"
         id="stop11" />
    </linearGradient>
    <radialGradient
       id="c"
       cx="-14217.448"
       cy="7277.7051"
       r="898.12"
       gradientTransform="matrix(-0.1185,-0.0178,-0.036,0.237,-198.955,-1314.415)"
       gradientUnits="userSpaceOnUse">
      <stop
         offset="0"
         stop-color="#ee352c"
         id="stop16" />
      <stop
         offset="1"
         stop-color="#a91d22"
         id="stop18" />
    </radialGradient>
  </defs>
  <metadata
     id="metadata1619">
    <rdf:RDF>
      <cc:Work
         rdf:about="">
        <dc:format>image/svg+xml</dc:format>
        <dc:type
           rdf:resource="http://purl.org/dc/dcmitype/StillImage" />
        <dc:title />
      </cc:Work>
    </rdf:RDF>
  </metadata>
  <g
     id="layer1"
     inkscape:groupmode="layer"
     inkscape:label="Camada 1">
    <rect
       style="fill:#e14938;fill-opacity:1;stroke:none;stroke-opacity:1"
       id="rect828"
       width="1920"
       height="174.73685"
       x="0"
       y="-6.9238304e-06"
       inkscape:export-filename="/home/cryptocrawll/Pictures/SGBD - Banco de dados/Photos/sgbd - menu.png"
       inkscape:export-xdpi="96"
       inkscape:export-ydpi="96" />
    <flowRoot
       xml:space="preserve"
       id="flowRoot830"
       style="font-style:normal;font-weight:normal;font-size:40px;line-height:1.25;font-family:sans-serif;letter-spacing:0px;word-spacing:0px;fill:#ffffff;fill-opacity:1;stroke:none"
       transform="matrix(1.8390462,0,0,1.8390462,-145.22383,-59.271494)"
       inkscape:export-filename="/home/cryptocrawll/Pictures/SGBD - Banco de dados/Photos/sgbd - menu.png"
       inkscape:export-xdpi="96"
       inkscape:export-ydpi="96"><flowRegion
         id="flowRegion832"
         style="fill:#ffffff"><rect
           id="rect834"
           width="1263.1578"
           height="115.78947"
           x="126.31579"
           y="58.947369"
           style="fill:#ffffff" /></flowRegion><flowPara
         id="flowPara836"
         style="font-style:normal;font-variant:normal;font-weight:normal;font-stretch:normal;font-family:'URW Gothic L';-inkscape-font-specification:'URW Gothic L';fill:#ffffff">O que aprenderemos</flowPara></flowRoot>    <rect
       style="fill:#ffffff;fill-opacity:1;stroke:none;stroke-opacity:1"
       id="rect838"
       width="1920"
       height="905.26318"
       x="0"
       y="174.73685"
       inkscape:export-filename="/home/cryptocrawll/Pictures/SGBD - Banco de dados/Photos/sgbd - menu.png"
       inkscape:export-xdpi="96"
       inkscape:export-ydpi="96" />
    <g
       transform="matrix(1.334099,0,0,1.334099,1126.576,527.50903)"
       id="形状_1_9_"
       style="enable-background:new"
       inkscape:export-filename="/home/cryptocrawll/Pictures/SGBD - Banco de dados/Photos/sgbd - menu.png"
       inkscape:export-xdpi="96"
       inkscape:export-ydpi="96">
      <g
         id="形状_1">
        <g
           id="g4">
          <path
             inkscape:connector-curvature="0"
             d="m 265.154,250.565 c 4.144,-0.521 8.277,1.053 11.536,3.536 0.03,-3.214 -0.025,-6.429 0.03,-9.64 -0.904,-0.529 -1.877,-0.918 -2.882,-1.198 -4.875,-1.375 -10.136,-1.431 -15.013,-0.045 -4.477,1.288 -8.585,4.029 -11.212,7.901 -3.135,4.538 -4.243,10.207 -3.997,15.642 0.244,5.229 2.31,10.446 6.116,14.106 3.502,3.394 8.328,5.222 13.166,5.477 4.729,0.232 9.682,-0.4 13.814,-2.854 -0.037,-3.043 0.006,-6.087 -0.022,-9.13 -2.663,1.942 -5.773,3.334 -9.068,3.713 -3.335,0.251 -6.907,-0.549 -9.455,-2.809 -2.453,-2.086 -3.758,-5.229 -4.084,-8.377 -0.435,-4.021 0.149,-8.386 2.678,-11.673 1.968,-2.65 5.104,-4.352 8.393,-4.649 z m -34.141,-25.211 c -2.807,0.319 -5.201,2.864 -5.125,5.72 -0.118,2.713 2.069,5.146 4.693,5.617 2.529,0.551 5.43,-0.516 6.727,-2.812 1.173,-2.035 0.882,-4.808 -0.702,-6.549 -1.35,-1.59 -3.556,-2.284 -5.593,-1.976 z m -27.805,1.282 c -5.84,14.501 -11.81,28.944 -17.695,43.425 -1.227,-2.876 -2.321,-5.807 -3.491,-8.704 -4.58,-11.589 -9.189,-23.166 -13.763,-34.754 h -14.698 c -0.006,19.598 -0.003,39.197 0,58.796 3.205,-0.003 6.413,0.005 9.621,-0.003 -0.008,-8.774 0,-17.549 -0.002,-26.324 0.034,-6.336 -0.07,-12.678 0.053,-19.013 0.182,0.287 0.351,0.587 0.508,0.896 5.995,14.813 11.945,29.649 17.97,44.452 2.422,-0.039 4.844,0.042 7.264,-0.045 5.807,-14.816 11.759,-29.577 17.6,-44.38 0.155,-0.324 0.332,-0.638 0.531,-0.94 0.045,0.649 0.067,1.299 0.062,1.949 -0.019,14.464 0.02,28.925 -0.016,43.386 3.398,0.048 6.797,0.011 10.199,0.02 -0.003,-19.596 -0.008,-39.192 0.003,-58.788 -4.718,0.009 -9.434,-0.048 -14.146,0.027 z m 96.111,17.268 c -2.534,1.432 -4.143,3.979 -5.223,6.603 0.009,-2.414 -0.006,-4.824 0.009,-7.235 -3.326,-0.016 -6.652,-0.033 -9.979,0.009 0.02,14.039 0,28.08 0.009,42.118 h 9.964 c 0.002,-6.717 0,-13.434 0,-20.151 -0.082,-2.917 0.159,-5.935 1.439,-8.603 1.178,-2.521 3.451,-4.718 6.32,-5.043 2.352,-0.238 4.838,0.313 6.831,1.602 0.008,-3.363 -0.006,-6.725 0.008,-10.088 -3.044,-1.022 -6.589,-0.883 -9.378,0.788 z m -72.513,-0.633 c 0.009,14.044 -0.002,28.086 0.006,42.127 h 10.033 c 0.014,-14.036 -0.022,-28.073 0.017,-42.109 -3.351,-0.064 -6.705,-0.031 -10.056,-0.018 z m 151.683,19.158 c -2.97,-1.714 -6.388,-2.525 -9.253,-4.438 -1.676,-1.062 -2.149,-3.386 -1.465,-5.158 0.861,-1.791 2.938,-2.59 4.827,-2.662 3.75,-0.132 7.524,1.008 10.614,3.128 -0.003,-3.089 0.003,-6.177 -0.003,-9.268 -4.423,-1.672 -9.314,-2.273 -13.988,-1.453 -3.948,0.702 -7.824,2.749 -10.056,6.162 -1.953,2.929 -2.205,6.705 -1.397,10.057 0.545,2.273 1.937,4.289 3.775,5.72 2.615,2.002 5.745,3.119 8.723,4.455 1.586,0.745 3.267,1.504 4.412,2.88 1.224,1.788 0.853,4.708 -1.208,5.729 -2.151,1.03 -4.664,1.013 -6.974,0.639 -3.317,-0.571 -6.452,-1.98 -9.17,-3.948 -0.036,3.248 -0.002,6.496 -0.016,9.746 3.229,1.434 6.761,2.125 10.274,2.353 4.948,0.185 10.328,-0.779 14.063,-4.262 3.913,-3.449 4.855,-9.562 2.63,-14.187 -1.182,-2.47 -3.45,-4.184 -5.788,-5.493 z m 44.361,-17.916 c -4.603,-2.319 -9.957,-2.657 -15,-2.033 -4.067,0.521 -8.063,2.061 -11.168,4.779 -3.789,3.257 -6.012,8.044 -6.666,12.941 -0.623,4.896 -0.412,10.054 1.589,14.637 1.92,4.497 5.708,8.148 10.267,9.937 4.498,1.768 9.5,1.965 14.234,1.201 4.842,-0.797 9.428,-3.337 12.425,-7.246 3.203,-4.037 4.58,-9.262 4.571,-14.352 0.07,-3.407 -0.355,-6.862 -1.571,-10.063 -1.555,-4.182 -4.667,-7.799 -8.681,-9.801 z m -0.435,24.087 c -0.388,2.218 -1.156,4.429 -2.612,6.185 -1.469,1.764 -3.652,2.839 -5.906,3.169 -2.419,0.361 -4.967,0.188 -7.229,-0.784 -2.441,-1.03 -4.333,-3.138 -5.329,-5.563 -1.199,-2.889 -1.438,-6.09 -1.199,-9.18 0.23,-2.994 1.081,-6.065 3.063,-8.392 1.808,-2.172 4.58,-3.373 7.376,-3.53 2.854,-0.198 5.902,0.46 8.097,2.383 2.023,1.675 3.144,4.183 3.657,6.708 0.576,2.961 0.57,6.026 0.082,9.004 z m -80.649,-24.404 c -4.501,-2.044 -9.618,-2.318 -14.468,-1.703 -5.094,0.642 -10.053,3.032 -13.286,7.084 -2.953,3.617 -4.39,8.265 -4.664,12.876 -0.408,5.436 0.502,11.202 3.701,15.738 2.726,3.914 7.027,6.604 11.676,7.596 3.884,0.814 7.947,0.817 11.832,0.011 4.544,-0.932 8.787,-3.44 11.603,-7.142 2.75,-3.485 4.131,-7.882 4.442,-12.269 0.317,-4.494 -0.138,-9.148 -2.01,-13.291 -1.754,-3.892 -4.919,-7.142 -8.826,-8.9 z m -0.935,28.242 c -0.966,2.167 -2.733,3.998 -4.965,4.866 -2.61,1 -5.543,1.059 -8.237,0.361 -2.742,-0.719 -5.068,-2.696 -6.334,-5.214 -1.629,-3.241 -1.872,-6.99 -1.536,-10.546 0.307,-3.234 1.435,-6.56 3.904,-8.792 1.792,-1.668 4.233,-2.483 6.649,-2.618 3.036,-0.198 6.27,0.658 8.452,2.861 2.336,2.291 3.239,5.613 3.489,8.783 0.181,3.47 0.037,7.085 -1.422,10.299 z m 145.167,-20.993 v -8.188 c -3.334,0.012 -6.669,-0.025 -10,0.022 -0.076,-4.208 -0.009,-8.416 -0.037,-12.621 -3.334,1.002 -6.648,2.069 -10,3.021 -0.08,3.192 -0.005,6.387 -0.042,9.578 -4.928,-0.002 -9.856,0.006 -14.785,-0.005 0.063,-2.515 -0.173,-5.048 0.188,-7.549 0.3,-1.971 1.445,-3.941 3.371,-4.704 2.428,-0.993 5.142,-0.333 7.448,0.681 -0.014,-2.881 0.022,-5.762 -0.02,-8.64 -4.854,-1.333 -10.421,-1.072 -14.729,1.725 -2.778,1.774 -4.794,4.614 -5.7,7.761 -1.071,3.486 -0.525,7.168 -0.696,10.745 -2.338,-0.016 -4.673,-0.039 -7.005,0.015 0.024,2.693 0.015,5.387 0.006,8.077 2.343,0.048 4.688,-0.009 7.032,0.037 -0.02,11.333 -0.005,22.664 -0.005,33.998 h 10.106 c 0,-11.337 -0.003,-22.674 0.002,-34.01 4.929,-0.008 9.86,-0.006 14.792,-0.003 0.014,7.227 -0.015,14.45 0.011,21.674 0.045,3.364 0.62,6.963 2.854,9.619 1.935,2.353 5.004,3.428 7.968,3.646 3.124,0.221 6.352,-0.16 9.24,-1.411 v -8.269 c -2.215,1.479 -5.273,2.066 -7.686,0.72 -1.438,-0.792 -1.998,-2.489 -2.183,-4.021 -0.306,-2.599 -0.112,-5.219 -0.166,-7.826 -0.003,-4.708 0.009,-9.415 -0.005,-14.122 3.347,0.013 6.695,-0.087 10.041,0.05 z"
             style="clip-rule:evenodd;fill:#434343;fill-rule:evenodd"
             id="path2" />
        </g>
      </g>
    </g>
    <g
       transform="matrix(1.334099,0,0,1.334099,1126.576,527.50903)"
       id="形状_1_8_"
       style="enable-background:new"
       inkscape:export-filename="/home/cryptocrawll/Pictures/SGBD - Banco de dados/Photos/sgbd - menu.png"
       inkscape:export-xdpi="96"
       inkscape:export-ydpi="96">
      <g
         id="形状_1_1_">
        <g
           id="g10">
          <path
             inkscape:connector-curvature="0"
             d="m 26.002,207.003 v 46.617 h 46.726 c 0.003,-15.539 0,-31.078 0.003,-46.617 z"
             style="clip-rule:evenodd;fill:#f25022;fill-rule:evenodd"
             id="path8" />
        </g>
      </g>
    </g>
    <g
       transform="matrix(1.334099,0,0,1.334099,1126.576,527.50903)"
       id="形状_1_7_"
       style="enable-background:new"
       inkscape:export-filename="/home/cryptocrawll/Pictures/SGBD - Banco de dados/Photos/sgbd - menu.png"
       inkscape:export-xdpi="96"
       inkscape:export-ydpi="96">
      <g
         id="形状_1_2_">
        <g
           id="g16">
          <path
             inkscape:connector-curvature="0"
             d="m 26.002,258.377 v 46.62 h 46.729 c 0,-15.539 0.003,-31.075 0,-46.614 -15.576,-0.008 -31.152,0 -46.729,-0.006 z"
             style="clip-rule:evenodd;fill:#02a4ef;fill-rule:evenodd"
             id="path14" />
        </g>
      </g>
    </g>
    <g
       transform="matrix(1.334099,0,0,1.334099,1126.576,527.50903)"
       id="形状_1_6_"
       style="enable-background:new"
       inkscape:export-filename="/home/cryptocrawll/Pictures/SGBD - Banco de dados/Photos/sgbd - menu.png"
       inkscape:export-xdpi="96"
       inkscape:export-ydpi="96">
      <g
         id="形状_1_3_">
        <g
           id="g22">
          <path
             inkscape:connector-curvature="0"
             d="m 77.506,258.383 c -0.006,15.536 0,31.075 -0.003,46.614 h 46.729 V 258.38 c -15.577,0 -31.153,-0.003 -46.726,0.003 z"
             style="clip-rule:evenodd;fill:#ffb902;fill-rule:evenodd"
             id="path20" />
        </g>
      </g>
    </g>
    <g
       transform="matrix(1.334099,0,0,1.334099,1126.576,527.50903)"
       id="形状_1_5_"
       style="enable-background:new"
       inkscape:export-filename="/home/cryptocrawll/Pictures/SGBD - Banco de dados/Photos/sgbd - menu.png"
       inkscape:export-xdpi="96"
       inkscape:export-ydpi="96">
      <g
         id="形状_1_4_">
        <g
           id="g28">
          <path
             inkscape:connector-curvature="0"
             d="m 77.503,207.003 c 0,15.539 -0.003,31.078 0.003,46.617 15.573,0 31.149,-0.003 46.723,0 0.006,-15.539 0.003,-31.078 0.003,-46.617 z"
             style="clip-rule:evenodd;fill:#80ba01;fill-rule:evenodd"
             id="path26" />
        </g>
      </g>
    </g>
    <g
       transform="matrix(0.18317304,0,0,0.18536121,1327.3279,266.80539)"
       id="g23"
       inkscape:export-filename="/home/cryptocrawll/Pictures/SGBD - Banco de dados/Photos/sgbd - menu.png"
       inkscape:export-xdpi="96"
       inkscape:export-ydpi="96">
      <linearGradient
         id="linearGradient96"
         gradientUnits="userSpaceOnUse"
         x1="-2901.9519"
         y1="923.573"
         x2="-2061.249"
         y2="1420.3311"
         gradientTransform="matrix(0.1234,0,0,-0.1234,1158.33,1550.273)">
        <stop
           offset="0"
           stop-color="#909ca9"
           id="stop92" />
        <stop
           offset="1"
           stop-color="#ededee"
           id="stop94" />
      </linearGradient>
      <path
         style="fill:#434343;fill-opacity:1"
         inkscape:connector-curvature="0"
         d="m 1410.773,814.195 -286.9,93.683 -249.599,110.161 -69.829,18.435 c -17.784,16.916 -36.431,34.049 -56.599,51.397 -22.119,19.082 -42.72,36.433 -58.553,49.008 -17.564,13.88 -43.587,39.902 -56.814,56.38 -19.735,24.721 -35.348,50.96 -42.071,71.13 -11.928,36.433 -6.07,73.297 16.916,107.346 29.492,43.369 88.261,87.606 156.785,117.749 34.916,15.4 93.683,35.132 137.92,46.19 73.512,18.651 215.771,38.819 294.054,41.857 15.828,0.65 37.082,0.65 37.947,0 1.737,-1.088 13.881,-24.289 27.979,-53.129 48.142,-98.238 82.838,-190.402 101.703,-269.119 11.276,-47.706 20.166,-111.246 26.019,-186.492 1.521,-21.036 2.169,-91.514 0.868,-115.37 -1.953,-39.033 -5.423,-70.692 -10.84,-101.703 -0.868,-4.555 -1.088,-8.676 -0.652,-8.892 0.865,-0.65 3.467,-1.517 38.815,-11.712 l -7.153,-16.912 v -0.005 0 z m -65.49,38.386 c 2.602,0 9.539,66.573 11.273,108.646 0.436,8.89 0.216,14.745 -0.216,14.745 -1.733,0 -36.649,-20.599 -61.583,-36.212 -21.687,-13.663 -62.888,-40.988 -69.393,-46.192 -2.173,-1.517 -1.957,-1.733 15.828,-7.807 30.14,-10.194 101.706,-33.18 104.091,-33.18 z m -146.161,48.143 c 1.953,0 6.937,2.816 18.865,10.191 44.671,27.974 105.393,61.805 131.415,73.083 8.022,3.469 8.887,2.166 -9.542,14.746 -39.468,26.889 -88.697,53.344 -148.983,80.018 -10.624,4.771 -19.514,8.456 -19.73,8.456 -0.432,0 0.865,-5.418 2.598,-11.925 14.53,-54.001 22.772,-108.647 23.208,-152.452 0.216,-21.687 0.216,-21.687 2.169,-22.334 -0.436,0.217 -0.22,0.217 0,0.217 z m -30.142,11.492 c 1.297,1.299 0.432,49.877 -1.304,63.104 -3.903,31.662 -9.975,61.153 -19.947,94.335 -2.386,8.018 -4.558,14.745 -4.987,15.177 -0.872,1.083 -30.581,-27.975 -40.339,-39.251 -16.916,-19.518 -30.141,-39.035 -39.9,-58.117 -4.988,-9.759 -12.793,-28.84 -12.144,-29.492 3.469,-2.385 117.753,-46.622 118.621,-45.756 z m -141.826,55.731 c 0.216,0 0.432,0 0.652,0.216 0.432,0.434 1.953,3.905 3.254,7.807 6.937,18.867 22.548,46.624 35.997,64.407 14.746,19.518 34.048,40.334 50.091,53.996 5.207,4.337 9.975,8.456 10.624,9.108 1.304,1.302 1.737,1.083 -33.612,14.53 -40.981,15.613 -85.656,31.226 -136.835,47.706 a 6825.474,6825.474 0 0 0 -36.643,11.928 c -1.955,0.652 -1.303,-0.434 4.335,-9.323 25.371,-39.686 63.97,-117.536 85.657,-172.618 3.687,-9.542 7.373,-19.082 8.025,-21.251 0.868,-3.038 1.95,-4.121 4.768,-5.64 1.518,-0.43 3.038,-0.866 3.687,-0.866 z m -43.367,17.999 c 0.649,0.436 -10.411,23.637 -21.254,44.889 -21.036,40.985 -44.022,81.323 -74.815,130.331 -5.204,8.456 -10.19,16.265 -10.842,17.132 -1.083,1.519 -1.519,1.083 -4.988,-5.638 -7.373,-14.53 -13.447,-33.181 -16.699,-50.313 -3.254,-16.916 -2.602,-46.406 1.086,-64.621 2.816,-13.444 2.602,-13.227 9.107,-16.481 27.757,-14.095 117.537,-56.166 118.405,-55.299 z m 374.073,15.182 v 9.107 c 0,48.359 -5.204,114.716 -12.797,163.077 -1.301,8.456 -2.389,15.393 -2.602,15.613 0,0 -6.288,-1.733 -13.661,-3.905 -32.527,-10.193 -67.875,-25.156 -99.754,-42.718 -21.038,-11.494 -51.612,-30.363 -50.743,-31.231 0.213,-0.215 9.323,-4.986 19.947,-10.625 42.509,-22.118 83.274,-45.972 118.622,-69.609 13.229,-8.892 33.176,-23.202 37.518,-27.107 z m -537.802,64.185 c 0.867,0 0.65,1.735 -0.651,9.542 -0.868,5.64 -1.951,16.049 -2.382,23.202 -1.739,31.662 3.469,55.084 19.082,87.177 4.337,8.892 7.809,16.265 7.589,16.48 -1.519,1.303 -145.074,43.375 -190.183,55.734 -13.444,3.685 -25.152,6.939 -26.024,7.153 -1.515,0.436 -1.733,0.22 -1.083,-3.47 4.987,-31.875 29.276,-73.512 63.104,-108.644 22.554,-23.419 40.554,-37.08 71.347,-54.648 22.119,-12.575 56.165,-31.439 58.767,-32.309 0.002,-0.217 0.218,-0.217 0.434,-0.217 z m 338.295,60.503 c 0.216,-0.216 5.42,2.605 11.708,6.29 46.408,26.891 111.03,51.83 166.108,64.623 l 4.991,1.086 -6.941,3.899 c -28.84,16.049 -123.606,55.515 -220.538,91.732 -14.098,5.202 -27.975,10.409 -30.581,11.492 -2.602,1.083 -4.988,1.735 -4.988,1.519 0,-0.22 3.906,-7.809 8.89,-17.132 27.107,-50.744 54.433,-112.547 68.311,-155.485 1.739,-4.12 2.82,-7.805 3.04,-8.024 z m -34.48,11.278 c 0.22,0.221 -1.517,4.771 -3.687,9.975 -18.865,45.756 -43.59,95.636 -75.249,151.583 -8.022,14.314 -14.746,25.808 -14.966,25.808 -0.213,0 -6.721,-3.906 -14.527,-8.676 -45.976,-28.192 -86.743,-62.888 -113.414,-96.501 l -3.905,-4.771 19.732,-5.422 c 70.696,-19.298 130.762,-40.116 190.4,-65.704 8.459,-3.471 15.4,-6.292 15.616,-6.292 z m 214.253,74.815 c 0,0 0.217,0.217 0,0 0.216,4.988 -10.844,49.661 -19.953,81.969 -7.589,27.107 -14.098,48.361 -26.022,85.874 -5.204,16.485 -9.755,30.143 -9.975,30.143 -0.216,0 -1.517,-0.216 -2.818,-0.647 -64.405,-11.714 -122.089,-27.977 -176.303,-49.661 -15.182,-6.074 -36.866,-15.833 -38.167,-16.916 -0.432,-0.438 12.58,-6.506 29.06,-13.663 98.669,-43.154 201.024,-92.164 236.153,-113.196 4.119,-2.603 7.373,-3.903 8.025,-3.903 z m -494.646,16.916 c 0.434,0.432 -27.107,40.118 -65.709,94.114 -13.444,18.867 -29.057,40.985 -34.911,49.225 -5.856,8.241 -14.746,21.253 -19.734,29.06 l -9.112,14.096 -9.759,-8.24 c -11.494,-9.544 -31.442,-29.927 -40.333,-41.204 -18.651,-23.201 -31.226,-47.706 -36.214,-70.04 -2.386,-10.411 -2.386,-15.618 -0.22,-16.265 3.252,-0.867 61.153,-14.53 115.37,-27.11 30.143,-6.937 65.054,-15.177 77.632,-18.213 12.579,-3.041 22.774,-5.423 22.99,-5.423 z m 27.756,10.626 6.937,7.806 c 31.231,34.914 63.108,60.724 101.708,83.272 6.941,3.906 12.144,7.373 11.708,7.594 -1.514,1.083 -134.016,48.136 -195.385,69.389 -34.478,12.143 -62.888,21.901 -63.102,21.901 -0.216,0 -2.169,-1.299 -4.341,-2.818 l -3.901,-2.82 6.288,-9.106 c 20.383,-29.493 45.976,-61.803 101.707,-129.028 z m 173.053,123.822 c 0.213,-0.215 9.755,3.252 21.464,7.594 28.195,10.624 50.527,17.345 80.456,24.936 36.866,9.326 90.211,18.434 121.657,21.035 4.771,0.432 7.373,0.868 6.505,1.519 -1.521,0.868 -33.395,11.494 -56.816,18.867 -37.302,11.708 -151.149,45.32 -243.962,71.995 -17.132,4.987 -31.879,9.108 -32.746,9.323 -2.166,0.436 -9.325,-1.519 -9.325,-2.386 0,-0.431 5.204,-7.153 11.494,-14.527 31.225,-37.3 62.238,-78.935 88.044,-118.403 7.154,-10.846 13.229,-19.736 13.229,-19.953 z m -38.17,1.087 c 0.216,0.216 -15.179,24.936 -42.066,67.439 -11.496,17.999 -24.291,38.383 -28.846,45.54 -4.337,6.939 -10.842,17.784 -14.527,23.854 l -6.29,11.061 -3.252,-0.868 c -7.809,-2.169 -62.672,-21.471 -77.202,-27.325 -18,-7.157 -36.649,-15.829 -50.529,-23.202 -17.346,-9.326 -39.03,-23.206 -37.297,-23.637 0.433,-0.216 30.143,-8.243 65.922,-17.999 94.984,-25.809 147.678,-40.77 182.161,-51.612 6.29,-1.952 11.71,-3.471 11.926,-3.251 z m 269.985,63.318 h 0.216 c 0.868,2.171 -34.26,99.755 -47.06,130.547 -2.815,6.939 -3.896,8.677 -5.417,8.456 -3.687,-0.213 -54.646,-7.37 -85.66,-11.925 -53.994,-8.24 -144.641,-24.073 -167.409,-29.275 l -5.204,-1.083 32.307,-7.378 c 69.396,-15.613 102.791,-24.069 136.619,-34.478 42.722,-13.011 85.011,-29.276 127.729,-49.225 6.722,-3.037 12.361,-5.422 13.879,-5.639 z"
         id="path7" />
      <linearGradient
         id="linearGradient103"
         gradientUnits="userSpaceOnUse"
         x1="-2882.7"
         y1="10288.81"
         x2="-2206.249"
         y2="10288.81"
         gradientTransform="matrix(0.1234,0,0,-0.1234,1158.33,1550.273)">
        <stop
           offset="0"
           stop-color="#939fab"
           id="stop99" />
        <stop
           offset="1"
           stop-color="#dcdee1"
           id="stop101" />
      </linearGradient>
      <path
         style="fill:#434343;fill-opacity:1"
         inkscape:connector-curvature="0"
         d="m 1114.983,145.414 c -4.771,-0.647 -81.757,27.11 -131.415,47.275 -67.01,27.327 -119.052,53.351 -151.148,75.899 -11.925,8.461 -26.891,23.422 -29.273,29.276 -0.867,2.169 -1.303,4.771 -1.303,7.373 l 29.06,27.541 69.175,22.119 164.594,29.493 188.228,32.312 1.953,-16.264 c -0.649,0 -1.085,-0.216 -1.73,-0.216 l -24.728,-3.905 -4.984,-8.89 c -25.59,-45.107 -53.781,-101.056 -70.261,-138.789 -12.793,-29.276 -24.938,-63.102 -31.662,-87.391 -3.687,-14.746 -4.119,-15.613 -6.501,-15.829 v -0.005 h -0.01 z m -3.474,11.063 h 0.223 c 0.213,0.214 1.081,6.29 1.95,13.442 3.683,30.364 10.411,59.635 21.035,91.297 8.022,23.855 8.022,22.555 -1.301,19.734 -22.119,-6.07 -121.221,-23.202 -193,-33.177 -11.494,-1.519 -21.253,-3.036 -21.253,-3.252 -0.867,-0.867 51.827,-28.41 75.031,-39.25 29.709,-13.665 111.246,-47.711 117.315,-48.794 z m -209.047,97.15 8.461,2.816 c 45.97,15.616 161.551,37.736 225.31,42.94 7.154,0.651 13.229,1.303 13.442,1.303 0.216,0.216 -5.852,3.469 -13.661,7.154 -30.79,15.397 -64.621,34.264 -88.042,48.794 -6.937,4.335 -13.229,7.807 -14.094,7.807 -0.868,0 -5.42,-0.868 -10.191,-1.519 l -8.674,-1.303 -21.683,-21.253 c -38.167,-37.08 -68.094,-65.704 -79.588,-76.549 z m -8.671,6.721 30.576,38.168 c 16.696,21.035 33.611,41.635 37.301,46.187 3.683,4.557 6.721,8.245 6.505,8.461 -0.868,0.65 -44.236,-7.809 -67.226,-13.011 -23.637,-5.423 -33.395,-8.025 -47.924,-12.577 l -11.928,-3.905 v -3.038 c 0.216,-14.53 18.651,-36.214 49.877,-58.331 z m 259.791,52.046 c 0.869,0 1.95,1.951 4.552,7.806 7.373,16.263 30.364,60.07 35.997,68.526 1.74,2.822 4.771,3.038 -25.802,-1.95 -73.512,-11.93 -97.152,-15.829 -97.152,-16.263 0,-0.216 2.169,-1.735 4.988,-3.254 22.771,-12.575 45.756,-28.624 66.142,-45.756 4.988,-4.121 9.542,-8.024 10.407,-8.676 0.216,-0.433 0.652,-0.649 0.868,-0.433 z"
         id="path14-9" />
      <radialGradient
         id="radialGradient110"
         cx="-14217.448"
         cy="7277.7051"
         r="898.12"
         gradientTransform="matrix(-0.1185,-0.0178,-0.036,0.237,-198.955,-1314.415)"
         gradientUnits="userSpaceOnUse">
        <stop
           offset="0"
           stop-color="#ee352c"
           id="stop106" />
        <stop
           offset="1"
           stop-color="#a91d22"
           id="stop108" />
      </radialGradient>
      <path
         style="fill:#e14938;fill-opacity:1"
         inkscape:connector-curvature="0"
         d="m 804.66,294.828 c 0,0 -4.768,7.593 -0.215,18.87 2.822,6.937 11.061,15.393 20.384,24.069 0,0 96.5,94.114 108.211,107.561 53.344,61.585 76.549,122.305 78.718,206.012 1.301,53.78 -8.894,101.054 -34.264,155.919 -45.106,98.453 -140.307,207.098 -287.117,327.67 l 21.472,-7.157 c 13.878,-10.411 32.745,-21.467 76.982,-45.756 102.137,-55.952 217.071,-107.346 358.028,-160.258 202.971,-76.335 536.715,-165.681 726.676,-194.736 l 19.737,-3.038 -3.038,-4.771 c -17.345,-26.891 -29.276,-43.587 -43.59,-61.369 -41.633,-51.612 -92.157,-93.463 -153.964,-128.161 -85.007,-47.489 -194.956,-84.571 -334.173,-112.112 -26.239,-5.207 -83.923,-15.181 -130.763,-22.337 -99.321,-15.393 -163.51,-26.021 -234.203,-38.165 -25.37,-4.339 -63.323,-10.843 -88.478,-16.263 -13.011,-2.822 -37.947,-8.676 -57.464,-15.398 -15.613,-6.075 -38.168,-12.147 -42.939,-30.58 z m 55.952,54.216 c 0.214,-0.214 3.683,1.083 8.24,2.602 8.24,2.816 18.865,6.07 31.446,9.542 a 1599.47,1599.47 0 0 0 28.624,7.589 c 13.011,3.251 23.852,6.288 24.068,6.288 1.521,1.519 23.424,71.558 30.797,98.449 2.815,10.195 4.988,18.867 4.771,18.867 -0.223,0.22 -2.605,-3.469 -5.423,-8.456 -25.373,-44.673 -65.491,-89.995 -111.899,-126.428 -6.069,-4.333 -10.624,-8.237 -10.624,-8.453 z m 106.692,29.492 c 1.085,0 5.856,0.651 11.708,1.951 36.866,8.24 103.008,20.818 145.293,27.975 7.157,1.083 12.797,2.387 12.797,2.818 0,0.436 -2.605,1.951 -5.859,3.688 -7.153,3.685 -35.997,20.815 -45.536,27.322 -24.073,16.047 -45.756,33.395 -61.371,49.008 -6.288,6.29 -11.712,11.494 -11.712,11.494 0,0 -1.297,-3.685 -2.386,-8.242 -7.802,-30.143 -24.069,-74.816 -38.815,-106.258 -2.386,-4.986 -4.339,-9.541 -4.339,-9.973 0,0.433 0,0.217 0.22,0.217 z m 187.795,35.781 c 1.301,0.432 3.47,7.806 7.806,24.069 8.025,31.446 11.712,66.576 10.411,99.321 -0.436,9.108 -0.868,17.564 -1.304,18.651 l -0.649,2.166 -11.276,-3.685 c -23.204,-7.373 -60.935,-18.435 -93.245,-27.541 -18.436,-4.988 -33.395,-9.542 -33.395,-9.975 0,-1.303 26.891,-28.192 38.383,-38.383 21.898,-19.303 81.316,-65.275 83.269,-64.623 z m 14.963,2.166 c 0.652,-0.647 89.779,14.746 130.331,22.554 30.145,5.854 73.948,14.963 76.549,16.049 1.301,0.432 -3.254,3.034 -17.784,9.539 -57.248,25.808 -99.754,49.008 -142.036,77.202 -11.06,7.373 -20.386,13.444 -20.602,13.444 -0.216,0 -0.433,-6.287 -0.433,-13.878 0,-41.201 -8.241,-82.838 -23.424,-117.968 -1.517,-3.47 -2.818,-6.722 -2.601,-6.942 z m 230.516,45.542 c 0.652,0.65 -2.169,18.217 -4.771,28.624 -7.806,32.312 -28.84,80.24 -54.643,125.343 -4.558,8.024 -8.677,14.53 -9.114,14.746 -0.429,0.216 -6.285,-3.038 -13.009,-6.941 -25.154,-14.746 -53.778,-28.624 -85.007,-41.637 -8.671,-3.685 -16.263,-6.723 -16.48,-7.153 -1.521,-1.303 68.308,-47.493 105.174,-69.612 29.276,-17.781 76.982,-44.239 77.85,-43.37 z m 16.48,2.601 c 1.953,0 41.421,10.844 62.019,16.916 50.963,15.181 109.512,36.648 147.679,53.996 l 15.828,7.159 -11.056,2.6 c -93.245,21.467 -173.049,46.192 -250.034,77.418 -6.289,2.602 -11.928,4.771 -12.357,4.771 -0.436,0 1.733,-4.987 4.552,-11.061 23.204,-49.225 38.167,-100.62 41.85,-144.427 0.221,-4.121 0.867,-7.372 1.519,-7.372 z m -392.938,90.213 c 0.649,-0.652 30.793,6.506 47.057,11.056 24.721,6.942 77.198,24.505 77.198,25.808 0,0.216 -5.853,5.204 -12.79,11.278 -28.408,23.637 -55.734,48.572 -88.481,80.234 -9.759,9.328 -17.997,16.917 -18.429,16.917 -0.436,0 -0.649,-1.304 -0.436,-3.038 4.987,-36.433 3.906,-83.272 -3.034,-130.763 -0.653,-6.074 -1.302,-11.276 -1.085,-11.492 z m 633.433,0.652 c 0.429,0.431 -13.881,22.984 -22.988,35.777 -13.009,18.649 -32.098,43.375 -75.252,97.588 -22.765,28.622 -48.358,60.936 -56.812,71.778 -8.678,10.842 -15.831,19.948 -16.051,19.948 -0.216,0 -3.031,-3.901 -6.069,-8.671 -24.289,-36.433 -53.349,-68.311 -87.829,-96.935 -6.505,-5.423 -13.658,-11.278 -16.044,-13.013 -2.386,-1.734 -4.339,-3.469 -4.339,-3.685 0,-0.649 36.862,-16.483 64.841,-27.757 49.01,-19.952 115.794,-43.805 165.892,-59.203 26.24,-8.239 54.215,-16.263 54.651,-15.827 z m 16.696,4.334 c 0.865,-0.215 6.072,2.387 12.361,6.07 52.697,30.143 104.305,68.962 145.077,108.864 11.492,11.278 39.9,40.77 39.464,40.986 0,0 -9.975,0.867 -21.683,1.733 -91.296,6.942 -208.178,26.239 -320.511,53.345 -7.589,1.733 -14.31,3.252 -14.746,3.252 -0.429,0 8.025,-8.456 18.653,-18.647 65.922,-63.538 96.067,-103.656 131.628,-175.22 4.986,-10.623 9.325,-19.731 9.757,-20.383 -0.216,0 -0.216,0 0,0 z m -482.936,49.446 c 3.038,0.647 31.229,13.88 52.48,24.503 19.517,9.755 48.794,25.372 50.311,26.671 0.216,0.216 -10.195,5.638 -22.984,11.928 -40.772,20.384 -75.684,39.682 -112.118,61.802 -10.408,6.29 -19.082,11.497 -19.298,11.497 -0.868,0 -0.652,-0.872 5.204,-11.497 19.518,-35.561 35.129,-78.065 44.023,-119.486 0.864,-3.252 1.733,-5.418 2.382,-5.418 z m -28.192,5.202 c 0.652,0.652 -6.721,27.323 -11.273,41.853 -8.894,27.541 -23.856,62.02 -38.383,88.043 -3.474,6.069 -8.677,14.961 -11.496,19.948 l -5.42,8.674 -12.144,-11.707 c -14.094,-13.663 -25.59,-22.12 -40.333,-29.712 -5.859,-3.033 -10.411,-5.638 -10.411,-6.069 0,-1.735 37.082,-35.347 65.49,-59.635 20.383,-17.566 63.321,-52.045 63.97,-51.395 z m 172.404,70.913 10.627,6.937 c 24.282,15.833 52.906,36.866 74.813,55.298 12.357,10.19 36.21,31.662 40.985,36.866 l 2.598,2.822 -17.561,4.986 c -99.321,27.538 -176.087,52.043 -265.649,85.007 -9.975,3.685 -18.433,6.721 -19.085,6.721 -1.297,0 -2.385,1.083 19.954,-19.519 57.251,-52.691 107.992,-110.812 145.726,-167.411 z m -45.324,11.276 c 0.432,0.432 -29.276,42.284 -47.06,65.922 -21.251,28.192 -58.985,75.465 -85.007,106.256 -10.84,12.797 -20.163,23.422 -20.599,23.64 -0.652,0.216 -0.868,-3.036 -0.868,-8.024 0,-26.242 -6.721,-54.216 -18.433,-78.068 -4.988,-9.975 -5.856,-12.361 -4.768,-13.444 4.119,-3.688 67.223,-39.686 107.123,-61.153 26.89,-14.312 68.956,-35.563 69.612,-35.129 z m -274.107,67.225 c 0.652,0 5.64,2.6 11.279,5.638 13.878,7.589 26.239,16.046 37.298,25.156 0.432,0.432 -5.204,4.988 -12.577,10.406 -20.602,14.746 -51.828,38.385 -70.041,52.915 -19.088,15.18 -19.734,15.613 -17.568,12.361 14.314,-21.903 21.467,-34.264 29.06,-50.093 6.721,-14.094 13.442,-30.793 18.213,-45.323 1.734,-6.289 3.904,-11.06 4.336,-11.06 z m 73.083,57.248 c 1.081,-0.214 2.386,1.735 8.238,10.411 12.361,18.429 21.903,43.154 24.292,63.104 l 0.429,4.339 -29.705,11.494 c -53.133,20.599 -102.139,40.985 -135.322,56.162 -9.322,4.339 -25.587,12.144 -36.211,17.352 -10.627,5.418 -19.301,9.539 -19.301,9.323 0,-0.216 6.721,-5.204 14.961,-11.278 64.844,-47.055 121.007,-98.669 163.076,-150.279 4.555,-5.423 8.677,-10.411 9.107,-10.627 z m -33.612,8.242 c 0.868,0.867 -23.853,28.84 -40.768,45.971 -41.853,42.723 -83.273,76.12 -134.669,108.649 -6.505,4.119 -12.359,7.804 -13.011,8.24 -1.519,0.867 0.432,-1.303 22.986,-25.808 14.314,-15.397 25.155,-28.408 37.516,-44.453 8.24,-10.624 9.759,-12.143 21.688,-20.604 31.878,-22.987 105.39,-72.864 106.258,-71.995 z"
         id="path21" />
    </g>
    <path
       inkscape:connector-curvature="0"
       style="fill:#434343;fill-opacity:1;stroke-width:0.32383808"
       d="m 1348.67,586.98082 c -0.7328,0 -1.4657,0.0703 -2.192,0.0703 -14.8003,0.79815 -24.7824,7.38939 -30.6189,20.2611 -4.9917,11.64122 -4.4466,26.85816 0.055,38.57076 5.2362,11.44451 13.6968,17.48459 27.8193,19.76589 2.988,0.49513 4.9917,2.15526 10.7788,8.99307 l 7.121,8.44227 h 12.9147 l -8.5876,-8.7605 c -4.747,-4.80341 -8.5866,-8.98594 -8.5866,-9.3534 0,-0.36712 1.816,-1.17239 4.014,-1.85034 7.2465,-2.21912 13.2643,-7.88426 17.4736,-16.56657 3.407,-6.97209 3.8959,-9.12728 4.3842,-17.80186 1.2778,-25.8202 -12.175,-41.96296 -34.5772,-41.77858 z m 11.3229,67.52166 c -6.2828,3.07953 -15.4061,3.69427 -21.3614,1.48323 -6.1574,-2.28851 -12.119,-8.75955 -14.8003,-16.08534 -2.9807,-8.01097 -2.5551,-22.78931 0.8518,-29.44472 5.4801,-10.5966 12.7268,-15.47071 23.3166,-15.47071 15.7073,0 24.6429,9.7352 25.8088,28.03158 0.9217,15.27356 -4.1327,26.73178 -13.8088,31.47944 z m 223.0993,-45.46658 c -5.4174,0 -9.564,2.21885 -12.3569,6.59062 l -2.192,3.46185 v -9.00019 h -9.3753 v 53.97232 h 9.3692 v -17.2513 c 0,-15.77493 0.1943,-17.61877 2.3729,-21.93547 3.0022,-5.91988 8.1674,-8.87192 13.1597,-7.45914 l 3.3506,0.98905 v -9.35341 h -4.3282 z m -55.0801,-0.49478 c -1.8366,0 -3.7844,0.24752 -5.724,0.67882 -12.5457,3.31958 -19.6171,15.47035 -19.1847,27.9746 0,10.46979 2.0102,15.7039 7.0026,21.19335 10.2274,8.49117 19.4768,9.16904 31.9586,4.61322 2.1295,-0.91835 4.4472,-1.978 4.4472,-1.978 v -8.49117 l -4.4472,2.33122 c -10.1016,4.4503 -17.7108,4.4503 -23.8057,-0.79162 -3.8876,-4.00564 -5.5985,-8.80939 -6.3869,-14.29077 h 37.8019 v -7.27726 c 0,-14.83514 -8.8239,-24.20253 -21.6695,-23.96239 z m -15.2887,23.66597 c 0,0 1.3966,-9.25415 6.5763,-12.88544 2.4931,-1.7806 5.3545,-2.64199 8.1537,-2.64199 2.8068,0 5.6058,0.9181 7.9167,2.70583 4.7474,3.6946 5.5431,12.75151 5.5431,12.75151 h -28.1894 v 0.0703 z m -226.0242,-9.73425 c -10.1641,-6.23133 -14.6738,-10.72462 -14.1224,-16.02291 1.5774,-14.65847 19.4772,-12.63087 29.3898,-7.08505 l 0.071,-9.86158 c 0,0 -5.4804,-2.40193 -13.3342,-2.52926 -12.0492,-0.18377 -19.84,3.81438 -23.4906,11.95268 -5.3619,12.00938 -0.6143,21.06568 16.5454,31.16835 9.6335,5.67226 13.8915,10.59658 13.8915,15.96523 0,11.09137 -13.2148,14.96281 -26.8485,8.00402 -2.8058,-1.41279 -5.1796,-2.59274 -5.3052,-2.59274 -0.489,3.14398 -0.2369,10.6672 -0.2369,10.6672 0,0 4.1889,1.78069 10.4711,3.00885 15.5809,3.14362 29.7599,-4.25263 31.1002,-16.26201 1.166,-11.27446 -2.863,-17.18774 -18.13,-26.42095 z m 379.369,-14.05852 c -1.829,0 -3.7699,0.25412 -5.7944,0.68515 -12.5305,3.3202 -19.589,15.47123 -19.1074,27.97548 0,10.45555 2.004,15.64041 6.9949,21.12205 10.2279,8.49898 19.4776,9.1837 32.0226,4.62068 2.122,-0.918 4.4328,-1.96307 4.4328,-1.96307 v -8.50541 l -4.4396,2.34453 c -10.1222,4.43665 -17.7321,4.43665 -23.805,-0.80494 -3.9099,-3.99848 -5.6059,-8.7459 -6.3951,-14.2917 h 37.7395 v -7.27631 c 0,-14.76409 -8.8244,-24.13905 -21.6694,-23.89144 z m -15.2886,23.66571 c 0,0 1.4103,-9.24043 6.583,-12.94241 2.4855,-1.78685 5.3474,-2.6491 8.1468,-2.6491 2.7924,0 5.606,0.91826 7.9173,2.71258 4.747,3.69487 5.5432,12.81501 5.5432,12.81501 h -28.1827 z m -171.8443,-9.48734 c -10.164,-6.21656 -14.6604,-10.72427 -14.1156,-16.02282 1.5774,-14.66603 19.4775,-12.63096 29.3901,-7.08514 l 0.071,-9.86157 c 0,0 -5.4805,-2.4022 -13.3344,-2.51561 -12.0491,-0.18335 -19.84,3.81506 -23.4972,11.95309 -5.3545,12.00902 -0.5448,21.06602 16.5585,31.16836 9.6202,5.666 13.8784,10.52614 13.8784,15.89479 0,11.09137 -13.2082,15.02628 -26.8421,8.00375 -2.7924,-1.41277 -5.1656,-2.57875 -5.3054,-2.57875 -0.489,3.14328 -0.2369,10.66754 -0.2369,10.66754 0,0 4.1393,1.71677 10.4013,3.00909 15.5954,3.15085 29.7809,-4.23888 31.1147,-16.24826 1.1589,-11.21844 -2.8622,-17.13103 -18.0813,-26.37145 v -0.0127 z m 242.2202,-13.68385 c -5.4174,0 -9.6123,2.22466 -12.3564,6.59809 l -2.1925,3.44726 v -8.9856 h -9.3755 v 53.95766 h 9.3685 v -17.25061 c 0,-15.76808 0.1882,-17.61905 2.3743,-21.92828 3.0015,-5.91268 8.1667,-8.87228 13.1586,-7.45296 l 3.3505,0.9887 v -9.37391 h -4.3275 z m -316.7771,13.37275 V 587.9057 h -9.452 v 76.14084 h 39.7502 v -8.99247 h -30.2979 v -32.77248 z m 218.5892,10.71644 -7.7908,20.51514 -7.491,-20.62821 -7.6093,-22.86 h -9.6755 c 6.2695,17.98622 13.0886,36.2826 19.9656,54.02158 2.9811,0.0703 5.9688,0 8.949,0 l 10.5211,-26.7318 10.7159,-27.28293 h -9.2495 c 0,0 -4.0846,10.8369 -8.3422,22.97335 z m -196.8087,-65.84041 c 1.522,0 2.7924,-0.49382 3.8395,-1.55357 1.0327,-1.04602 1.5774,-2.27513 1.5774,-3.81507 0,-1.5402 -0.5447,-2.82602 -1.5774,-3.81506 -1.0471,-0.98871 -2.2551,-1.48383 -3.77,-1.48383 -1.5352,0 -2.8061,0.49512 -3.8396,1.5402 -1.0467,1.04602 -1.5216,2.33184 -1.5216,3.8154 0,1.55419 0.489,2.8394 1.5216,3.81507 0.9778,0.98835 2.2485,1.48323 3.7701,1.48323 z m -3.3506,-8.75952 c 0.9072,-0.91801 2.0105,-1.34245 3.4204,-1.34245 1.3267,0 2.4299,0.42444 3.3517,1.34245 0.9074,0.91835 1.396,2.03445 1.396,3.39088 0,1.35617 -0.4886,2.52926 -1.396,3.44726 -0.9214,0.91774 -2.025,1.35616 -3.3517,1.35616 -1.3471,0 -2.4433,-0.42383 -3.3505,-1.35616 -0.9075,-0.918 -1.3962,-2.09109 -1.3962,-3.44726 0,-1.35643 0.4188,-2.47218 1.3263,-3.39088 z m 2.2544,3.88576 h 0.6143 c 0.4333,0 0.859,0.42347 1.2217,1.2291 l 0.7336,1.66666 h 1.1514 l -0.907,-1.85139 c -0.3699,-0.74109 -0.7326,-1.17204 -1.1589,-1.29295 0.5377,-0.12711 0.9631,-0.31048 1.2706,-0.6782 0.3064,-0.31735 0.4185,-0.74865 0.4185,-1.23632 0,-0.56488 -0.1744,-0.98835 -0.5441,-1.29952 -0.4192,-0.35306 -1.0894,-0.54371 -1.9552,-0.54371 h -1.94 v 6.90209 h 0.9771 v -2.89645 z m 0,-3.20755 h 0.8523 c 0.6141,0 1.0471,0.12712 1.2844,0.31049 0.2304,0.18377 0.2932,0.42451 0.2932,0.86198 0,0.79815 -0.4892,1.17308 -1.396,1.17308 h -1.047 v -2.34555 z m -156.1374,2.59248 c 0,-2.40185 -0.069,-4.1887 -0.1257,-5.24159 h 0.056 c 0.244,1.24248 0.5443,2.16865 0.7887,2.78303 l 9.075,20.51513 h 1.522 l 9.0749,-20.69856 c 0.245,-0.56452 0.4894,-1.41278 0.7894,-2.59273 h 0.069 c -0.1812,2.04904 -0.2441,3.82905 -0.2441,5.24878 v 18.10643 h 3.106 v -26.91555 h -3.8952 l -8.342,18.72055 c -0.3075,0.74143 -0.7333,1.85129 -1.2777,3.32055 h -0.1257 c -0.1814,-0.72782 -0.6072,-1.83706 -1.2144,-3.19349 l -8.1543,-18.9118 h -4.1392 v 26.91522 h 2.9878 v -18.04261 z m 30.919,0.0504 h 2.6812 v 16.7633 h -2.6812 z m 1.3404,-6.14656 c 0.5589,0 1.0333,-0.19124 1.3961,-0.56487 0.3702,-0.36781 0.615,-0.84801 0.615,-1.41289 0,-0.55113 -0.182,-1.04602 -0.6075,-1.41287 -0.377,-0.37458 -0.8589,-0.56583 -1.4104,-0.56583 -0.5441,0 -1.0327,0.19125 -1.3965,0.56583 -0.3689,0.36685 -0.6138,0.86174 -0.6138,1.41287 0,0.61474 0.1885,1.04508 0.6138,1.41289 0.4198,0.37363 0.8521,0.56487 1.3965,0.56487 z m 20.4548,23.27767 v -2.95343 c -1.4662,1.10924 -3.0441,1.66076 -4.6774,1.66076 -1.9541,0 -3.5396,-0.67787 -4.6985,-1.97741 -1.1515,-1.28582 -1.7658,-3.07398 -1.7658,-5.29891 0,-2.33123 0.6143,-4.18287 1.8846,-5.59576 1.2216,-1.35607 2.8068,-2.03438 4.7476,-2.03438 1.5846,0 3.1056,0.49523 4.5099,1.48454 v -3.14363 c -1.2775,-0.6782 -2.7364,-0.98939 -4.3843,-0.98939 -3.0441,0 -5.417,0.98939 -7.1901,2.89741 -1.7596,1.90705 -2.667,4.49978 -2.667,7.62943 0,2.78303 0.7886,5.12173 2.4297,6.9092 1.71,1.83634 3.8959,2.76903 6.5763,2.76903 2.0724,-0.0582 3.7688,-0.49616 5.235,-1.35746 z m 7.6718,-8.93679 c 0,-2.21129 0.4885,-3.99815 1.3962,-5.22821 0.852,-1.10855 1.8847,-1.66666 3.1065,-1.66666 1.0333,0 1.7659,0.19064 2.3034,0.6216 v -3.20748 c -0.4187,-0.18342 -1.0262,-0.24699 -1.8147,-0.24699 -1.0962,0 -2.0729,0.37336 -2.9318,1.05975 -0.9075,0.72675 -1.6335,1.8367 -2.0593,3.2495 h -0.069 v -3.93528 h -3.0368 v 19.21543 h 3.0434 v -9.86166 z m 17.4735,10.24311 c 2.8626,0 5.1662,-0.93269 6.8763,-2.78303 1.7029,-1.83767 2.5548,-4.30959 2.5548,-7.39034 0,-3.14268 -0.7815,-5.54486 -2.3733,-7.33303 -1.5774,-1.78616 -3.77,-2.64918 -6.6325,-2.64918 -2.8626,0 -5.1662,0.86233 -6.8762,2.52934 -1.8289,1.83765 -2.7924,4.43004 -2.7924,7.75745 0,2.89636 0.782,5.29855 2.4298,7.08576 1.703,1.85034 3.9581,2.77581 6.8135,2.77581 z m -4.3283,-15.65475 c 1.1589,-1.23631 2.6814,-1.85129 4.5656,-1.85129 1.9553,0 3.421,0.61498 4.5102,1.85129 1.0957,1.29294 1.6406,3.13711 1.6406,5.60219 0,2.34486 -0.4888,4.18904 -1.5223,5.42535 -1.0328,1.29293 -2.5547,1.97775 -4.5658,1.97775 -1.9544,0 -3.4694,-0.68543 -4.6283,-1.97775 -1.1514,-1.2998 -1.7032,-3.08049 -1.7032,-5.42535 -0.1187,-2.33115 0.489,-4.23821 1.7032,-5.60219 z m 27.0868,13.98062 c 1.1586,-1.04508 1.7735,-2.33089 1.7735,-3.94247 0,-1.4128 -0.4893,-2.58528 -1.3965,-3.51076 -0.7404,-0.74109 -1.8845,-1.41287 -3.5393,-2.09108 -1.4665,-0.62089 -2.3737,-1.17274 -2.8627,-1.60378 -0.4884,-0.49418 -0.7887,-1.10821 -0.7887,-1.97774 0,-0.79807 0.3075,-1.4128 0.9081,-1.90732 0.6142,-0.49392 1.3963,-0.73397 2.4433,-0.73397 1.6406,0 3.0434,0.43754 4.3277,1.36338 v -3.08051 c -1.2285,-0.62088 -2.5619,-0.91764 -4.0839,-0.91764 -1.9544,0 -3.6021,0.54436 -4.8174,1.59586 -1.2775,1.04638 -1.8844,2.40254 -1.8844,3.9985 0,1.41288 0.4185,2.58596 1.2139,3.44726 0.6702,0.73492 1.816,1.48417 3.407,2.15467 1.5223,0.67854 2.5553,1.29257 3.1065,1.78675 0.5443,0.49523 0.7887,1.10926 0.7887,1.83766 0,1.79372 -1.2143,2.7198 -3.5882,2.7198 -1.8291,0 -3.469,-0.60785 -4.9359,-1.83662 v 3.31925 c 1.3266,0.80623 2.9184,1.17308 4.6775,1.17308 2.255,-0.11991 4.0207,-0.67795 5.2357,-1.7872 z m 14.4926,-18.48075 c -2.8629,0 -5.1661,0.86232 -6.8766,2.52923 -1.8151,1.83768 -2.7922,4.43014 -2.7922,7.75747 0,2.89645 0.7892,5.29864 2.4293,7.08575 1.7105,1.85035 3.9581,2.77591 6.8207,2.77591 2.9318,0 5.1662,-0.93209 6.8763,-2.78372 1.7103,-1.83636 2.5617,-4.30889 2.5617,-7.3893 0,-3.14371 -0.7958,-5.54521 -2.3739,-7.33276 -1.6466,-1.78746 -3.8395,-2.64946 -6.6318,-2.64946 z m 5.9055,10.10266 c 0,2.34486 -0.4886,4.18905 -1.5216,5.42535 -1.0333,1.29294 -2.5554,1.97766 -4.5661,1.97766 -1.9554,0 -3.4697,-0.68541 -4.629,-1.97766 -1.1514,-1.29979 -1.7028,-3.08049 -1.7028,-5.42535 0,-2.47254 0.6077,-4.37959 1.8294,-5.66601 1.1512,-1.22911 2.6738,-1.85105 4.5654,-1.85105 1.8846,0 3.4,0.62125 4.4955,1.85105 0.9775,1.35615 1.5221,3.20034 1.5221,5.66601 z m 8.2242,9.6144 h 3.0367 v -16.63631 h 4.4468 v -2.58589 h -4.4472 v -2.96715 c 0,-2.69791 1.0328,-4.05442 3.1693,-4.05442 0.7194,0 1.4522,0.18343 1.9969,0.49443 v -2.77582 c -0.5447,-0.24725 -1.2775,-0.30362 -2.1928,-0.30362 -1.6402,0 -2.9805,0.49488 -4.0768,1.53993 -1.2778,1.22912 -1.9544,2.82569 -1.9544,4.98817 v 3.15074 h -3.2121 v 2.58536 h 3.2121 v 16.57369 z m 12.4744,-5.24193 c 0,3.75871 1.6412,5.67288 4.9917,5.67288 1.215,0 2.1293,-0.19741 2.8623,-0.63557 v -2.64198 c -0.5582,0.42417 -1.2217,0.62219 -1.9544,0.62219 -1.0327,0 -1.759,-0.24822 -2.1853,-0.80622 -0.4329,-0.55021 -0.677,-1.48357 -0.677,-2.7694 v -10.8434 h 4.8163 v -2.58599 h -4.8163 v -5.66505 c -1.0471,0.36712 -2.0731,0.67822 -3.044,0.98836 v 4.67636 h -3.2811 v 2.58596 h 3.2811 v 11.39501 z m 326.7113,35.42062 c -1.0331,-0.98843 -2.2548,-1.48322 -3.7694,-1.48322 -1.5356,0 -2.8069,0.49479 -3.84,1.55418 -1.033,1.03855 -1.5223,2.33088 -1.5223,3.81506 0,1.5402 0.4893,2.82602 1.5147,3.81447 1.0336,0.98896 2.3036,1.48417 3.8399,1.48417 1.5147,0 2.7922,-0.49521 3.8398,-1.54063 1.0263,-1.05966 1.5706,-2.28164 1.5706,-3.81437 -0.055,-1.55419 -0.6073,-2.84035 -1.6404,-3.82905 z m -0.4884,7.27691 c -0.9078,0.91802 -2.0108,1.34184 -3.3512,1.34184 -1.3261,0 -2.4289,-0.42382 -3.3505,-1.34184 -0.9071,-0.93268 -1.3965,-2.09821 -1.3965,-3.46193 0,-1.34244 0.4188,-2.45786 1.3405,-3.39054 0.9071,-0.91766 2.0038,-1.34244 3.4065,-1.34244 1.3267,0 2.4303,0.42478 3.3512,1.34244 0.9072,0.93268 1.3959,2.0481 1.3959,3.39054 0,1.42755 -0.4188,2.52925 -1.3959,3.46193 z m -2.7369,-3.14397 c 0.5443,-0.12712 0.9775,-0.37424 1.2775,-0.67786 0.3075,-0.3183 0.4195,-0.7496 0.4195,-1.24283 0,-0.55124 -0.1747,-0.98941 -0.5442,-1.29294 -0.4189,-0.35347 -1.0959,-0.54438 -1.9541,-0.54438 h -1.9409 v 6.89451 h 0.9776 v -2.89636 h 0.6068 c 0.4195,0 0.8383,0.42349 1.2147,1.2291 l 0.7256,1.66006 h 1.1596 l -0.9072,-1.85131 c -0.3146,-0.80527 -0.6777,-1.17308 -1.0469,-1.29328 z m -0.6703,-0.62123 h -1.0468 v -2.3308 h 0.8588 c 0.6074,0 1.033,0.11243 1.2776,0.30353 0.2441,0.18343 0.3002,0.42383 0.3002,0.86199 0,0.79816 -0.4887,1.16597 -1.3959,1.16597 z m -169.8404,-53.71075 h 0.8519 v -6.90207 h 2.2539 v -0.86191 h -5.3604 v 0.86191 h 2.2553 v 6.90207 z m 5.1659,-5.18523 c 0,-0.67168 0,-1.22257 -0.05,-1.53271 0.055,0.36676 0.1814,0.61472 0.2375,0.79815 l 2.6182,5.91979 h 0.4189 l 2.6242,-5.97685 c 0.071,-0.18344 0.1271,-0.42383 0.2448,-0.74109 -0.055,0.61472 -0.055,1.10794 -0.055,1.48322 v 5.22786 h 0.9077 v -7.75712 h -1.0964 l -2.3728,5.35493 c -0.055,0.19125 -0.2453,0.56488 -0.3635,0.98931 h -0.069 c -0.05,-0.24788 -0.1742,-0.49479 -0.3491,-0.91801 l -2.3734,-5.42562 h -1.2285 v 7.77084 h 0.8583 v -5.18521 z"
       id="path25"
       inkscape:export-filename="/home/cryptocrawll/Pictures/SGBD - Banco de dados/Photos/sgbd - menu.png"
       inkscape:export-xdpi="96"
       inkscape:export-ydpi="96" />
    <flowRoot
       xml:space="preserve"
       id="flowRoot950"
       style="font-style:normal;font-weight:normal;font-size:40px;line-height:1.25;font-family:sans-serif;letter-spacing:0px;word-spacing:0px;fill:#000000;fill-opacity:1;stroke:none"
       transform="translate(98.947368,44.210526)"
       inkscape:export-filename="/home/cryptocrawll/Pictures/SGBD - Banco de dados/Photos/sgbd - menu.png"
       inkscape:export-xdpi="96"
       inkscape:export-ydpi="96"><flowRegion
         id="flowRegion952"><rect
           id="rect954"
           width="846.3158"
           height="724.21051"
           x="77.894737"
           y="267.36841" /></flowRegion><flowPara
         id="flowPara1010">Empresa responsável pelo desenvolvimento;</flowPara><flowPara
         id="flowPara1202" /><flowPara
         id="flowPara1204">Plataformas suportadas;</flowPara><flowPara
         id="flowPara1206" /><flowPara
         id="flowPara1208">Linguagem SQL suportada;</flowPara><flowPara
         id="flowPara1210" /><flowPara
         id="flowPara1212">Estimativa de fatia de mercado;</flowPara><flowPara
         id="flowPara1214" /><flowPara
         id="flowPara1216">Principais funcionalidades;</flowPara><flowPara
         id="flowPara1218" /><flowPara
         id="flowPara1222">Vantagens em relação a outros bancos de dados relacionais;</flowPara></flowRoot>    <circle
       style="fill:#e14938;fill-opacity:1;stroke:none;stroke-opacity:1"
       id="path1226"
       cx="137.1579"
       cy="335.6842"
       r="8.4210529"
       inkscape:export-filename="/home/cryptocrawll/Pictures/SGBD - Banco de dados/Photos/sgbd - menu.png"
       inkscape:export-xdpi="96"
       inkscape:export-ydpi="96" />
    <circle
       r="8.4210529"
       cy="437.6842"
       cx="137.1579"
       id="circle1228"
       style="fill:#e14938;fill-opacity:1;stroke:none;stroke-opacity:1"
       inkscape:export-filename="/home/cryptocrawll/Pictures/SGBD - Banco de dados/Photos/sgbd - menu.png"
       inkscape:export-xdpi="96"
       inkscape:export-ydpi="96" />
    <circle
       style="fill:#e14938;fill-opacity:1;stroke:none;stroke-opacity:1"
       id="circle1230"
       cx="137.1579"
       cy="539.6842"
       r="8.4210529"
       inkscape:export-filename="/home/cryptocrawll/Pictures/SGBD - Banco de dados/Photos/sgbd - menu.png"
       inkscape:export-xdpi="96"
       inkscape:export-ydpi="96" />
    <circle
       r="8.4210529"
       cy="635.6842"
       cx="137.1579"
       id="circle1232"
       style="fill:#e14938;fill-opacity:1;stroke:none;stroke-opacity:1"
       inkscape:export-filename="/home/cryptocrawll/Pictures/SGBD - Banco de dados/Photos/sgbd - menu.png"
       inkscape:export-xdpi="96"
       inkscape:export-ydpi="96" />
    <circle
       style="fill:#e14938;fill-opacity:1;stroke:none;stroke-opacity:1"
       id="circle1234"
       cx="137.1579"
       cy="737.6842"
       r="8.4210529"
       inkscape:export-filename="/home/cryptocrawll/Pictures/SGBD - Banco de dados/Photos/sgbd - menu.png"
       inkscape:export-xdpi="96"
       inkscape:export-ydpi="96" />
    <circle
       r="8.4210529"
       cy="839.6842"
       cx="137.1579"
       id="circle1236"
       style="fill:#e14938;fill-opacity:1;stroke:none;stroke-opacity:1"
       inkscape:export-filename="/home/cryptocrawll/Pictures/SGBD - Banco de dados/Photos/sgbd - menu.png"
       inkscape:export-xdpi="96"
       inkscape:export-ydpi="96" />
  </g>
</svg>
